<?xml version="1.0" encoding="UTF-8" standalone="no"?>
<!-- Created with Inkscape (http://www.inkscape.org/) -->

<svg
   width="167mm"
   height="136mm"
   viewBox="0 0 167 136"
   version="1.1"
   id="svg4215"
   xml:space="preserve"
   inkscape:version="1.2.2 (b0a84865, 2022-12-01)"
   sodipodi:docname="Chilbi2025_noImage01.svg"
   xmlns:inkscape="http://www.inkscape.org/namespaces/inkscape"
   xmlns:sodipodi="http://sodipodi.sourceforge.net/DTD/sodipodi-0.dtd"
   xmlns="http://www.w3.org/2000/svg"
   xmlns:svg="http://www.w3.org/2000/svg"><sodipodi:namedview
     id="namedview4217"
     pagecolor="#ffffff"
     bordercolor="#000000"
     borderopacity="0.25"
     inkscape:showpageshadow="2"
     inkscape:pageopacity="0.0"
     inkscape:pagecheckerboard="0"
     inkscape:deskcolor="#d1d1d1"
     inkscape:document-units="mm"
     showgrid="false"
     inkscape:zoom="0.9333462"
     inkscape:cx="490.70752"
     inkscape:cy="372.852"
     inkscape:window-width="1483"
     inkscape:window-height="1002"
     inkscape:window-x="2569"
     inkscape:window-y="138"
     inkscape:window-maximized="0"
     inkscape:current-layer="svg4215" /><defs
     id="defs4212"><inkscape:path-effect
       effect="bspline"
       id="path-effect10941"
       is_visible="true"
       lpeversion="1"
       weight="33.333333"
       steps="2"
       helper_size="0"
       apply_no_weight="true"
       apply_with_weight="true"
       only_selected="false" /><inkscape:path-effect
       effect="bspline"
       id="path-effect6126"
       is_visible="true"
       lpeversion="1"
       weight="33.333333"
       steps="2"
       helper_size="0"
       apply_no_weight="true"
       apply_with_weight="true"
       only_selected="false" /><inkscape:path-effect
       effect="bspline"
       id="path-effect1683"
       is_visible="true"
       lpeversion="1"
       weight="33.333333"
       steps="2"
       helper_size="0"
       apply_no_weight="true"
       apply_with_weight="true"
       only_selected="false" /><inkscape:path-effect
       effect="bspline"
       id="path-effect1130"
       is_visible="true"
       lpeversion="1"
       weight="33.333333"
       steps="2"
       helper_size="0"
       apply_no_weight="true"
       apply_with_weight="true"
       only_selected="false" /><inkscape:path-effect
       effect="bspline"
       id="path-effect20993"
       is_visible="true"
       lpeversion="1"
       weight="33.333333"
       steps="2"
       helper_size="0"
       apply_no_weight="true"
       apply_with_weight="true"
       only_selected="false" /><inkscape:path-effect
       effect="bspline"
       id="path-effect20989"
       is_visible="true"
       lpeversion="1"
       weight="33.333333"
       steps="2"
       helper_size="0"
       apply_no_weight="true"
       apply_with_weight="true"
       only_selected="false" /><inkscape:path-effect
       effect="bspline"
       id="path-effect20984"
       is_visible="true"
       lpeversion="1"
       weight="33.333333"
       steps="2"
       helper_size="0"
       apply_no_weight="true"
       apply_with_weight="true"
       only_selected="false" /></defs><g
     inkscape:groupmode="layer"
     id="layer6"
     inkscape:label="area"><path
       style="fill:#ffffd7;fill-opacity:1;stroke:none;stroke-width:0.1;stroke-dasharray:none;stroke-opacity:1"
       d="M 3.0427312,93.62135 V 81.1858 l 11.2200478,-5.423023 14.866564,-8.321535 9.91104,-5.703525 2.524511,-0.4675 0.935006,2.43101 6.358027,-2.15051 -3.366015,-11.874552 21.785595,-8.228034 36.091153,-11.033048 6.17103,-0.841502 5.04902,10.752545 7.94753,-4.488019 6.35803,7.947533 -3.92702,3.366016 8.04104,8.882536 7.48003,-6.358027 7.57353,7.760533 -3.64651,3.927017 4.67502,21.785595 -1.87001,6.45153 -24.7776,8.69553 2.71151,10.47205 -17.29758,9.72404 -7.76053,-18.41958 1.122,-2.61801 -15.053563,-4.20752 -10.28504,-0.4675 -19.728589,1.96351 z"
       id="path14160" /></g><g
     inkscape:groupmode="layer"
     id="layer3"
     inkscape:label="Buildings"
     style="display:inline"><path
       style="fill:#dcdcdc;fill-opacity:1;stroke:none;stroke-width:0.264583px;stroke-linecap:butt;stroke-linejoin:miter;stroke-opacity:1"
       d="m 12.084051,84.6511 1.197549,4.92837 7.093181,-1.88844 0.138181,0.41454 7.415596,-2.07269 0.322418,1.38179 2.579339,-0.59877 0.184237,0.87513 2.53328,-0.55272 0.506655,1.98057 2.901755,-0.73696 -0.506656,-2.1648 15.199672,-4.28354 -2.993874,-11.376727 -24.089178,6.632587 -5.803511,3.36235 0.460595,2.21086 z"
       id="path4595" /><path
       style="fill:#dcdcdc;fill-opacity:1;stroke:none;stroke-width:0.264583px;stroke-linecap:butt;stroke-linejoin:miter;stroke-opacity:1"
       d="m 54.973745,68.103195 2.896298,10.716305 1.448149,-0.43445 0.386176,1.59297 10.088769,-3.08939 -3.66864,-12.212723 z"
       id="path20853" /><path
       style="fill:#dcdcdc;fill-opacity:1;stroke:none;stroke-width:0.264583px;stroke-linecap:butt;stroke-linejoin:miter;stroke-opacity:1"
       d="m 70.372397,71.433937 1.83433,5.744323 4.73062,-1.496417 -1.68951,-5.84087 z"
       id="path20855" /><path
       style="fill:#dcdcdc;fill-opacity:1;stroke:none;stroke-width:0.264583px;stroke-linecap:butt;stroke-linejoin:miter;stroke-opacity:1"
       d="m 77.661417,64.434549 -0.86889,2.944571 3.13766,9.3647 2.41358,-0.72407 -0.53099,-2.027414 -0.43444,0.04827 -2.41358,-6.564944 1.54469,0.144817 0.48272,-2.510126 z"
       id="path20857" /><path
       style="fill:#dcdcdc;fill-opacity:1;stroke:none;stroke-width:0.264583px;stroke-linecap:butt;stroke-linejoin:miter;stroke-opacity:1"
       d="m 81.330067,63.56566 2.51012,4.634079 10.47495,-6.033958 -1.01371,-2.07568 2.07569,-1.15852 -2.35554,-3.803095 c 0,0 -0.54502,-0.581742 -0.87866,-0.734438 -0.14921,-0.06829 -0.41673,-0.114794 -0.58045,-0.125854 -0.25737,-0.0174 -0.34222,-0.01499 -0.62576,0.03849 -0.20828,0.03929 -0.51144,0.162054 -0.70571,0.29881 -0.17701,0.124611 -0.37748,0.325957 -0.50225,0.502856 -0.17051,0.241739 -0.29028,0.530418 -0.34769,0.820615 -0.0531,0.268339 0.0586,0.830392 0.0586,0.830392 l -1.59296,0.820618 0.43445,0.868889 -3.42729,1.979139 0.53098,1.013703 -3.81345,1.979139 z"
       id="path20859"
       sodipodi:nodetypes="ccccccssssssccccccc" /><path
       style="fill:#dcdcdc;fill-opacity:1;stroke:none;stroke-width:0.264583px;stroke-linecap:butt;stroke-linejoin:miter;stroke-opacity:1"
       d="m 76.792527,63.855288 2.8963,-1.448149 -0.82062,-1.592963 -2.79975,1.255061 z"
       id="path20861" /><path
       style="fill:#dcdcdc;fill-opacity:1;stroke:none;stroke-width:0.264583px;stroke-linecap:butt;stroke-linejoin:miter;stroke-opacity:1"
       d="m 88.088097,70.516777 1.25506,2.510126 -0.6758,0.289629 0.91716,2.268767 0.82062,-0.386172 1.25506,2.365313 3.13766,-1.834326 -3.81346,-6.806301 z"
       id="path20863" /><path
       style="fill:#dcdcdc;fill-opacity:1;stroke:none;stroke-width:0.264583px;stroke-linecap:butt;stroke-linejoin:miter;stroke-opacity:1"
       d="m 128.10529,93.68717 -1.97913,-3.42729 8.54408,-4.97198 1.97913,3.33075 z"
       id="path20865" /><path
       style="fill:#dcdcdc;fill-opacity:1;stroke:none;stroke-width:0.264583px;stroke-linecap:butt;stroke-linejoin:miter;stroke-opacity:1"
       d="m 113.04454,91.17704 -0.14482,4.19963 8.54409,0.53099 0.14481,-4.00654 z"
       id="path20869" /><path
       style="fill:#dcdcdc;fill-opacity:1;stroke:none;stroke-width:0.264583px;stroke-linecap:butt;stroke-linejoin:miter;stroke-opacity:1"
       d="m 110.63096,91.65976 2.36531,-9.31643 -4.15136,-1.15852 -2.12396,9.41297 z"
       id="path20871" /><path
       style="fill:#dcdcdc;fill-opacity:1;stroke:none;stroke-width:0.264583px;stroke-linecap:butt;stroke-linejoin:miter;stroke-opacity:1"
       d="m 113.38244,76.16456 1.25506,-1.158521 1.68951,1.930861 -1.20679,1.11025 z"
       id="path20873" /><path
       style="fill:#dcdcdc;fill-opacity:1;stroke:none;stroke-width:0.264583px;stroke-linecap:butt;stroke-linejoin:miter;stroke-opacity:1"
       d="m 118.16133,79.4953 3.28248,-3.08938 2.46185,2.99284 -3.08939,2.94457 z"
       id="path20875" /><path
       style="fill:#dcdcdc;fill-opacity:1;stroke:none;stroke-width:0.264583px;stroke-linecap:butt;stroke-linejoin:miter;stroke-opacity:1"
       d="m 116.13392,73.413076 1.8826,-2.075681 3.5721,3.475559 -1.93087,1.979136 z"
       id="path20877" /><path
       style="fill:#dcdcdc;fill-opacity:1;stroke:none;stroke-width:0.264583px;stroke-linecap:butt;stroke-linejoin:miter;stroke-opacity:1"
       d="m 123.22986,72.254555 3.18592,2.317041 0.72408,-0.820618 0.82062,0.386172 1.83432,-2.848028 -3.91,-2.848025 z"
       id="path20879" /><path
       style="fill:#dcdcdc;fill-opacity:1;stroke:none;stroke-width:0.264583px;stroke-linecap:butt;stroke-linejoin:miter;stroke-opacity:1"
       d="m 128.44319,75.343941 2.84803,2.220499 2.46185,-2.944573 -0.53098,-0.241359 1.3516,-1.544693 -1.73778,-1.110247 -0.82061,0.868889 -1.30334,-0.57926 z"
       id="path20881" /><path
       style="fill:#dcdcdc;fill-opacity:1;stroke:none;stroke-width:0.264583px;stroke-linecap:butt;stroke-linejoin:miter;stroke-opacity:1"
       d="m 132.16011,78.4816 2.60667,-4.103092 4.39272,3.330742 -2.84803,3.86173 z"
       id="path20883" /><path
       style="fill:#dcdcdc;fill-opacity:1;stroke:none;stroke-width:0.264583px;stroke-linecap:butt;stroke-linejoin:miter;stroke-opacity:1"
       d="m 114.6375,66.510229 0.86889,0.820618 0.62753,-0.386172 0.96544,0.820618 -0.24136,0.627531 0.53099,0.289631 0.38617,-0.241358 0.43445,0.144814 3.76518,-3.572102 -3.18592,-3.041113 z"
       id="path20885" /><path
       style="fill:#dcdcdc;fill-opacity:1;stroke:none;stroke-width:0.264583px;stroke-linecap:butt;stroke-linejoin:miter;stroke-opacity:1"
       d="m 112.22392,64.917265 5.02025,-2.123951 -0.77235,-2.31704 1.06198,-0.772346 -1.59296,-1.882595 -5.64778,2.60667 z"
       id="path20887" /><path
       style="fill:#dcdcdc;fill-opacity:1;stroke:none;stroke-width:0.264583px;stroke-linecap:butt;stroke-linejoin:miter;stroke-opacity:1"
       d="m 109.47244,67.234303 -6.51667,4.489265 -1.93087,-3.041113 6.32358,-4.537535 z"
       id="path20889" /><path
       style="fill:#dcdcdc;fill-opacity:1;stroke:none;stroke-width:0.264583px;stroke-linecap:butt;stroke-linejoin:miter;stroke-opacity:1"
       d="m 99.528477,71.53048 4.054823,6.85457 -2.84803,1.64124 -1.448153,-2.26877 -0.77235,0.38618 -1.11024,-2.02741 0.77234,-0.579261 -1.3516,-2.413582 z"
       id="path20891" /><path
       style="fill:#dcdcdc;fill-opacity:1;stroke:none;stroke-width:0.264583px;stroke-linecap:butt;stroke-linejoin:miter;stroke-opacity:1"
       d="m 100.15601,60.621088 1.64123,2.896301 2.41359,-1.255064 0.62753,0.627531 2.8963,-1.689508 0.28963,-0.675801 -0.38618,-0.724075 -1.15852,-2.413584 -0.38617,0.434445 -0.38617,-0.675804 0.62753,-0.386172 -3.66865,-6.564942 -4.923703,2.558396 3.765193,6.951117 z"
       id="path20895" /><path
       style="fill:#dcdcdc;fill-opacity:1;stroke:none;stroke-width:0.264583px;stroke-linecap:butt;stroke-linejoin:miter;stroke-opacity:1"
       d="m 59.931991,90.36512 -0.543941,-3.65218 1.554117,-0.23312 -0.0777,-0.62164 4.35152,-0.46624 0.15542,0.54394 1.55411,-0.23312 0.46624,3.65218 z"
       id="path20897" /><path
       style="fill:#dcdcdc;fill-opacity:1;stroke:none;stroke-width:0.264583px;stroke-linecap:butt;stroke-linejoin:miter;stroke-opacity:1"
       d="m 71.820987,88.88871 -0.62164,-3.65218 1.55411,-0.23312 0.15542,-0.62165 5.43941,-0.77705 0.0777,0.62164 1.78724,-0.15541 0.62165,4.04071 z"
       id="path20899" /><path
       style="fill:#dcdcdc;fill-opacity:1;stroke:none;stroke-width:0.264583px;stroke-linecap:butt;stroke-linejoin:miter;stroke-opacity:1"
       d="m 61.097577,57.728647 -1.243291,-3.419059 -0.621649,0.233116 -2.098059,-5.361704 -3.263646,1.165587 -0.466235,-1.243293 -0.932471,0.233117 -0.699352,-1.476412 1.087882,-0.543941 -0.38853,-0.699352 14.064761,-5.750238 0.23312,0.543941 11.34506,-4.118411 19.03794,-6.371881 0.23312,0.466235 0.77706,-0.233119 2.875123,4.662353 -3.419063,2.253472 -0.93247,-0.932471 -3.34136,1.010176 -1.3987,1.087882 0.23312,1.321002 -11.65589,3.963 -1.3987,-3.574473 -4.81777,1.787236 -7.30435,2.952825 1.01018,2.952824 7.45976,-2.875119 1.94265,5.050883 -6.06106,2.797413 0.46623,1.631823 -2.642,0.854763 -0.85476,-1.243293 z"
       id="path20903" /><path
       style="fill:#dcdcdc;fill-opacity:1;stroke:none;stroke-width:0.264583px;stroke-linecap:butt;stroke-linejoin:miter;stroke-opacity:1"
       d="m 74.152167,26.957116 -1.39871,-3.18594 4.74006,-2.098061 1.08789,2.408883 -1.08789,0.543941 0.54395,1.398706 z"
       id="path20905" /><path
       style="fill:#dcdcdc;fill-opacity:1;stroke:none;stroke-width:0.264583px;stroke-linecap:butt;stroke-linejoin:miter;stroke-opacity:1"
       d="m 89.227107,22.372469 -1.16559,-1.631823 4.66236,-2.408883 1.24329,2.020353 z"
       id="path20907" /><path
       style="fill:#dcdcdc;fill-opacity:1;stroke:none;stroke-width:0.264583px;stroke-linecap:butt;stroke-linejoin:miter;stroke-opacity:1"
       d="m 97.541637,16.544527 -3.03053,-4.506942 3.8853,-2.020353 1.47641,2.408883 -0.31083,0.77706 0.777063,1.554118 z"
       id="path20909" /><path
       style="fill:#dcdcdc;fill-opacity:1;stroke:none;stroke-width:0.264583px;stroke-linecap:butt;stroke-linejoin:miter;stroke-opacity:1"
       d="m 108.18735,18.254058 -1.39871,-6.682708 4.42924,-0.699352 0.54394,2.875118 1.94265,-0.233119 0.62164,3.263649 z"
       id="path20911" /><path
       style="fill:#dcdcdc;fill-opacity:1;stroke:none;stroke-width:0.264583px;stroke-linecap:butt;stroke-linejoin:miter;stroke-opacity:1"
       d="M 148.74982,14.912704 148.28358,13.12547 162.11523,8.8516451 162.97,10.561173 Z"
       id="path20913" /><path
       style="fill:#dcdcdc;fill-opacity:1;stroke:none;stroke-width:0.264583px;stroke-linecap:butt;stroke-linejoin:miter;stroke-opacity:1"
       d="m 111.60641,33.795233 3.65217,7.926001 3.8853,-1.864942 -3.65218,-7.770588 z"
       id="path20915" /><path
       style="fill:#dcdcdc;fill-opacity:1;stroke:none;stroke-width:0.264583px;stroke-linecap:butt;stroke-linejoin:miter;stroke-opacity:1"
       d="m 120.30947,39.001529 2.40888,4.273822 6.37188,-5.128588 -3.03053,-3.419059 -2.79741,2.331177 -0.62165,-0.310824 z"
       id="path20917" /><path
       style="fill:#dcdcdc;fill-opacity:1;stroke:none;stroke-width:0.264583px;stroke-linecap:butt;stroke-linejoin:miter;stroke-opacity:1"
       d="m 129.78958,34.883118 -1.94264,-6.138768 5.12858,-1.476412 1.63183,6.138767 z"
       id="path20919" /><path
       style="fill:#dcdcdc;fill-opacity:1;stroke:none;stroke-width:0.264583px;stroke-linecap:butt;stroke-linejoin:miter;stroke-opacity:1"
       d="m 142.22252,24.859058 1.63183,5.517118 8.70306,-2.564294 -1.70953,-5.517118 z"
       id="path20921" /><path
       style="fill:#dcdcdc;fill-opacity:1;stroke:none;stroke-width:0.264583px;stroke-linecap:butt;stroke-linejoin:miter;stroke-opacity:1"
       d="m 142.53335,45.76194 2.7197,4.740058 19.11565,-11.966704 -0.0777,-6.83812 z"
       id="path20923" /><path
       style="fill:#dcdcdc;fill-opacity:1;stroke:none;stroke-width:0.264583px;stroke-linecap:butt;stroke-linejoin:miter;stroke-opacity:1"
       d="m 131.88764,48.79247 12.66606,-10.101766 -3.26364,-4.196117 -12.35524,9.713236 z"
       id="path20925" /><path
       style="fill:#dcdcdc;fill-opacity:1;stroke:none;stroke-width:0.264583px;stroke-linecap:butt;stroke-linejoin:miter;stroke-opacity:1"
       d="m 124.41511,55.589435 3.07573,-2.839135 -3.02841,-4.022111 0.7571,-0.662464 -1.60884,-1.892757 -4.77921,3.690876 0.7571,0.89906 1.08834,-0.283914 3.54892,5.015807 z"
       id="path20927" /><path
       style="fill:#dcdcdc;fill-opacity:1;stroke:none;stroke-width:0.264583px;stroke-linecap:butt;stroke-linejoin:miter;stroke-opacity:1"
       d="m 127.01766,56.204581 3.31232,3.123049 -0.9937,1.419569 5.82023,5.441677 3.92747,-4.353343 -3.83283,-3.170367 0.37855,-0.567827 -2.41326,-1.940076 -1.9874,2.365946 -1.18297,-0.804423 1.18297,-1.277609 -2.60254,-2.129354 z"
       id="path20929" /><path
       style="fill:#dcdcdc;fill-opacity:1;stroke:none;stroke-width:0.264583px;stroke-linecap:butt;stroke-linejoin:miter;stroke-opacity:1"
       d="m 141.73384,71.630554 3.64356,-3.454284 7.19248,7.712988 -3.48658,3.336832 -1.61777,-1.48191 2.88036,-2.943259 -1.89276,-1.845437 -2.93377,2.697178 z"
       id="path20931"
       sodipodi:nodetypes="ccccccccc" /><path
       style="fill:#dcdcdc;fill-opacity:1;stroke:none;stroke-width:0.264583px;stroke-linecap:butt;stroke-linejoin:miter;stroke-opacity:1"
       d="m 150.39321,68.791419 2.69718,2.12935 5.48899,-6.530011 -3.02841,-2.602543 -0.47319,0.615146 -0.56782,-0.09464 -3.83284,5.110443 0.37855,0.662466 -0.42587,0.709785 z"
       id="path20933" /><path
       style="fill:#dcdcdc;fill-opacity:1;stroke:none;stroke-width:0.264583px;stroke-linecap:butt;stroke-linejoin:miter;stroke-opacity:1"
       d="m 151.6235,60.699881 -0.85174,-0.567828 -0.37855,0.189275 -2.22399,-2.744499 0.14195,-0.709782 -0.56782,-0.520509 2.7445,-2.602542 3.78551,4.164068 z"
       id="path20935" /><path
       style="fill:#dcdcdc;fill-opacity:1;stroke:none;stroke-width:0.264583px;stroke-linecap:butt;stroke-linejoin:miter;stroke-opacity:1"
       d="m 153.04307,53.270807 3.97479,4.447979 0.89906,-1.041016 -1.84544,-2.082033 1.32493,-1.608844 -2.46059,-1.798119 z"
       id="path20937" /><path
       style="fill:#dcdcdc;fill-opacity:1;stroke:none;stroke-width:0.264583px;stroke-linecap:butt;stroke-linejoin:miter;stroke-opacity:1"
       d="m 158.95794,55.40016 3.21768,3.170368 2.36595,-2.649861 -0.0946,-1.419569 -2.17667,-1.892755 -0.52051,0.37855 -0.85174,-0.283914 z"
       id="path20939" /><path
       style="fill:#dcdcdc;fill-opacity:1;stroke:none;stroke-width:0.264583px;stroke-linecap:butt;stroke-linejoin:miter;stroke-opacity:1"
       d="m 104.81416,47.796636 1.56955,2.55905 0.95538,-0.545931 1.39894,2.320208 0.68242,-0.307086 0.30708,0.170604 2.69554,-1.91076 -3.00262,-4.913379 z"
       id="path20941" /><path
       style="fill:#dcdcdc;fill-opacity:1;stroke:none;stroke-width:0.264583px;stroke-linecap:butt;stroke-linejoin:miter;stroke-opacity:1"
       d="m 103.074,46.261203 4.74277,-2.832015 -1.94487,-3.207345 -4.7769,2.93438 z"
       id="path20943" /><path
       style="fill:#dcdcdc;fill-opacity:1;stroke:none;stroke-width:0.264583px;stroke-linecap:butt;stroke-linejoin:miter;stroke-opacity:1"
       d="m 99.030237,117.38886 -1.27384,-2.72339 6.061743,-3.29442 -0.65889,-1.27385 -6.237443,2.76732 -1.80095,-3.77761 6.896333,-3.47012 4.21686,8.43372 z"
       id="path20945" /><path
       style="fill:#dcdcdc;fill-opacity:1;stroke:none;stroke-width:0.264583px;stroke-linecap:butt;stroke-linejoin:miter;stroke-opacity:1"
       d="m 93.451687,120.63936 -5.31501,2.81124 0.79067,1.62525 -6.58885,3.20657 -1.7131,-3.47012 2.50376,-1.27385 -0.79066,-1.62525 2.02058,-1.01029 -0.35141,-0.74673 2.32806,-1.05422 -0.57103,-1.14207 5.05145,-2.50376 z"
       id="path20947" /><path
       style="fill:#dcdcdc;fill-opacity:1;stroke:none;stroke-width:0.264583px;stroke-linecap:butt;stroke-linejoin:miter;stroke-opacity:1"
       d="m 73.245887,125.42725 2.32806,5.18323 2.24021,-1.09814 -2.45984,-5.00752 z"
       id="path20949" /><path
       style="fill:#dcdcdc;fill-opacity:1;stroke:none;stroke-width:0.264583px;stroke-linecap:butt;stroke-linejoin:miter;stroke-opacity:1"
       d="m 75.090767,123.14312 -1.14207,-2.54769 4.65612,-2.24021 1.27384,2.81125 z"
       id="path20951" /><path
       style="fill:#dcdcdc;fill-opacity:1;stroke:none;stroke-width:0.264583px;stroke-linecap:butt;stroke-linejoin:miter;stroke-opacity:1"
       d="m 71.796337,127.0525 -1.01029,-1.8888 -1.62525,0.87851 0.57104,1.75703 z"
       id="path20953" /><path
       style="fill:#dcdcdc;fill-opacity:1;stroke:none;stroke-width:0.264583px;stroke-linecap:butt;stroke-linejoin:miter;stroke-opacity:1"
       d="m 68.326217,132.85069 3.64582,-1.84488 1.27385,2.72339 -1.66918,1.14207 -2.41591,0.0439 z"
       id="path20955" /><path
       style="fill:#dcdcdc;fill-opacity:1;stroke:none;stroke-width:0.264583px;stroke-linecap:butt;stroke-linejoin:miter;stroke-opacity:1"
       d="m 90.157257,134.34416 5.44678,-2.72339 1.40562,2.72339 z"
       id="path20957" /><path
       style="fill:#dcdcdc;fill-opacity:1;stroke:none;stroke-width:0.264583px;stroke-linecap:butt;stroke-linejoin:miter;stroke-opacity:1"
       d="m 107.94715,134.21238 -0.30748,-0.61496 3.73368,-1.22991 0.65889,1.71309 z"
       id="path20959" /><path
       style="fill:#dcdcdc;fill-opacity:1;stroke:none;stroke-width:0.264583px;stroke-linecap:butt;stroke-linejoin:miter;stroke-opacity:1"
       d="m 117.08368,133.86098 -0.26355,-2.19629 h -1.18599 l -0.13178,-1.14206 1.27385,-0.1757 -0.0879,-0.87852 2.54769,-0.26355 0.0879,1.22992 1.31777,-0.13178 0.35141,1.7131 -0.57103,0.0439 0.0878,1.93272 z"
       id="path20961" /><path
       style="fill:#dcdcdc;fill-opacity:1;stroke:none;stroke-width:0.264583px;stroke-linecap:butt;stroke-linejoin:miter;stroke-opacity:1"
       d="m 120.64166,129.02916 -1.09814,-3.73368 4.9636,-1.40563 1.18599,3.77761 z"
       id="path20963" /><path
       style="fill:#dcdcdc;fill-opacity:1;stroke:none;stroke-width:0.264583px;stroke-linecap:butt;stroke-linejoin:miter;stroke-opacity:1"
       d="m 127.84547,132.0161 2.98694,-4.74397 5.09538,2.94302 -0.79066,1.93273 -0.43926,-0.21963 -0.48318,0.61496 1.44954,1.14206 -5.75426,0.0439 z"
       id="path20965" /><path
       style="fill:#dcdcdc;fill-opacity:1;stroke:none;stroke-width:0.264583px;stroke-linecap:butt;stroke-linejoin:miter;stroke-opacity:1"
       d="m 132.72122,124.76837 4.17293,-2.15236 -0.79066,-1.40562 -0.80513,0.41742 -2.70892,-4.67821 -3.2505,1.7131 z"
       id="path20967"
       sodipodi:nodetypes="ccccccc" /><path
       style="fill:#dcdcdc;fill-opacity:1;stroke:none;stroke-width:0.264583px;stroke-linecap:butt;stroke-linejoin:miter;stroke-opacity:1"
       d="m 97.932097,131.00581 -1.22992,-2.81124 13.968363,-7.11596 1.44955,2.85517 z"
       id="path20969" /><path
       style="fill:#dcdcdc;fill-opacity:1;stroke:none;stroke-width:0.264583px;stroke-linecap:butt;stroke-linejoin:miter;stroke-opacity:1"
       d="m 113.21823,125.03192 -2.15236,-3.86545 5.00752,-2.50377 1.66918,3.38228 -1.80095,1.09814 0.1757,0.87851 z"
       id="path20971" /><path
       style="fill:#dcdcdc;fill-opacity:1;stroke:none;stroke-width:0.264583px;stroke-linecap:butt;stroke-linejoin:miter;stroke-opacity:1"
       d="m 122.00336,121.21039 -2.28414,-4.52434 4.52435,-2.15236 1.8888,3.82153 -2.94302,1.44955 v 1.3617 z"
       id="path20973" /><path
       style="fill:#dcdcdc;fill-opacity:1;stroke:none;stroke-width:0.264583px;stroke-linecap:butt;stroke-linejoin:miter;stroke-opacity:1"
       d="m 141.50634,123.40667 -2.19628,-4.74397 -0.58853,0.3513 -2.76732,-5.75404 -3.32085,1.49336 -1.44954,-3.55798 8.87298,-4.39256 1.80095,3.86546 0.57103,-0.0879 1.97666,4.39257 1.62525,-0.74674 -0.26356,-0.61495 3.11872,-1.40563 2.94302,6.23745 z"
       id="path20975"
       sodipodi:nodetypes="ccccccccccccccc" /></g><g
     inkscape:groupmode="layer"
     id="layer4"
     inkscape:label="Streets"
     style="display:inline"><path
       style="display:inline;fill:#dadada;fill-opacity:1;stroke:none;stroke-width:0.264583px;stroke-linecap:butt;stroke-linejoin:miter;stroke-opacity:1"
       d="m 14.985094,56.844608 c 0,0 -1.993252,-4.627192 -1.993252,-4.627192 0.925438,-0.427126 1.850993,-0.854305 2.301761,-1.044055 0.450767,-0.18975 0.427094,-0.142405 0.403364,-0.09495 0,0 4.128879,1.922066 4.128879,1.922066 18.485037,-8.044195 36.970198,-16.088444 46.817814,-20.419027 9.847615,-4.330582 11.057756,-4.947515 13.229056,-5.706863 2.1713,-0.759348 5.303481,-1.661036 8.103527,-2.681406 2.800047,-1.02037 5.267797,-2.159331 6.442412,-2.882897 1.174616,-0.723566 1.055972,-1.032038 -0.818637,-4.116897 C 91.725409,14.108532 88.094916,8.2475419 86.267796,5.3050928 84.440675,2.3626437 84.41669,2.3386621 84.392957,2.3149321 c 0,0 2.8475,-0.142375 2.8475,-0.142375 0,0 13.240893,21.2138929 13.240893,21.2138929 0,0 -2.562753,0.783064 -2.562753,0.783064 -0.261023,-0.379667 -0.521837,-0.75903 -0.759079,-1.008252 -0.237242,-0.249222 -0.450802,-0.367865 -0.961087,-0.237466 -0.510284,0.130399 -1.317055,0.510057 -2.384878,0.984647 -1.067823,0.47459 -2.396633,1.044079 -5.006859,1.933936 -2.610226,0.889857 -6.501736,2.100022 -8.779753,2.823764 -2.278018,0.723742 -2.942419,0.961028 -7.154444,2.823804 -4.212025,1.862776 -11.971439,5.350953 -19.730884,8.839144 0,0 -36.661592,15.946014 -36.661592,15.946014 0,0 -1.494941,0.5695 -1.494941,0.5695 0,0 1.4e-5,3e-6 1.4e-5,3e-6 z"
       id="path20982"
       inkscape:path-effect="#path-effect20984"
       inkscape:original-d="m 14.985094,56.844608 -1.993252,-4.627192 c 0,0 1.851141,-0.853985 2.776315,-1.281377 -0.02347,0.04773 -0.07119,0.142375 -0.07119,0.142375 l 4.128879,1.922066 c 0,0 36.970337,-16.088125 55.455111,-24.132585 1.21048,-0.616707 2.42062,-1.233641 3.63057,-1.850876 3.13258,-0.901462 6.26476,-1.803151 9.39676,-2.705127 2.46815,-1.138758 4.9359,-2.277719 7.40351,-3.417003 -0.11839,-0.30822 -0.23703,-0.616694 -0.35594,-0.92544 -3.63038,-5.860959 -7.26087,-11.7219509 -10.8917,-17.5833269 -0.0235,-0.02346 -0.0712,-0.07119 -0.0712,-0.07119 l 2.8475,-0.142375 13.240893,21.2138929 -2.562753,0.783064 c 0,0 -0.52178,-0.759069 -0.78307,-1.139002 -0.2133,-0.118383 -0.42686,-0.237027 -0.64069,-0.355936 -0.80654,0.379939 -1.61331,0.759597 -2.42037,1.138999 -1.3286,0.569778 -2.65741,1.139267 -3.98651,1.708502 -3.89139,1.210477 -7.7829,2.420641 -11.67476,3.630567 -0.66416,0.237559 -1.32856,0.474848 -1.99325,0.711875 -7.75933,3.488526 -23.278334,10.464572 -23.278334,10.464572 l -36.661592,15.946014 -1.494941,0.5695 z"
       sodipodi:nodetypes="ccccccccccccccccccccccccc" /><path
       style="fill:#c8c8c8;fill-opacity:1;stroke:none;stroke-width:0.264583px;stroke-linecap:butt;stroke-linejoin:miter;stroke-opacity:1"
       d="m 49.6573,90.7203 c 1.116804,-0.429537 2.23375,-0.859128 3.064102,-1.625072 0.830352,-0.765944 1.374422,-1.868404 1.438945,-2.892044 0.06452,-1.02364 -0.35069,-1.968609 -1.209806,-4.674756 -0.859117,-2.706148 -2.162027,-7.173269 -3.006721,-9.64314 -0.844693,-2.469871 -1.231273,-2.942356 -1.718101,-3.267029 -0.486828,-0.324673 -1.074274,-0.501423 -1.661415,-0.67808 0,0 6.844516,-2.004778 6.844516,-2.004778 -0.935511,0.515603 -1.87093,1.031156 -2.102438,2.169712 -0.231508,1.138556 0.240976,2.899634 1.314845,6.70828 1.073869,3.808647 2.74895,9.66427 4.424155,15.520327 0,0 -7.388082,0.38658 -7.388082,0.38658 z"
       id="path20991"
       inkscape:path-effect="#path-effect20993"
       inkscape:original-d="m 49.6573,90.7203 c 0,0 2.233872,-0.85881 3.350411,-1.28861 0.544359,-1.10225 1.088429,-2.20471 1.632249,-3.30746 -0.414965,-0.94474 -0.830178,-1.88971 -1.245664,-2.83496 -1.3027,-4.46704 -2.605611,-8.934161 -3.908811,-13.401638 -0.386329,-0.472239 -0.772909,-0.944724 -1.159759,-1.417481 -0.586886,-0.176396 -1.761422,-0.529972 -1.761422,-0.529972 l 6.844516,-2.004778 c 0,0 -1.870756,1.031471 -2.806532,1.546809 0.472766,1.761411 0.945251,3.522488 1.417479,5.283338 1.675503,5.856442 5.025615,17.568172 5.025615,17.568172 z"
       sodipodi:nodetypes="cccccccccccc" /><path
       style="display:inline;fill:#c8c8c8;fill-opacity:1;stroke:none;stroke-width:0.264583px;stroke-linecap:butt;stroke-linejoin:miter;stroke-opacity:1"
       d="m 100.01874,27.823968 c 0.74757,1.162885 2.24251,3.48834 3.10859,4.923968 0.86609,1.435628 1.10338,1.981387 0.98464,2.59822 -0.11874,0.616833 -0.59331,1.304967 -2.76453,3.072777 -2.171222,1.76781 -6.039002,4.615255 -8.803457,6.572917 -2.764454,1.957663 -4.425464,3.025455 -5.908551,3.962766 -1.483087,0.937311 -2.788166,1.744087 -4.686523,2.894967 -1.898358,1.15088 -4.389869,2.645787 -6.394986,3.772928 -2.005116,1.127141 -3.523754,1.886462 -5.16107,2.622073 -1.637315,0.735611 -3.393244,1.447474 -5.101747,2.052575 -1.708503,0.605101 -3.369504,1.103401 -5.742453,1.791557 -2.37295,0.688157 -5.457683,1.566119 -8.55437,2.420379 -3.096687,0.854259 -6.205149,1.684764 -9.100138,2.467834 -2.894988,0.78307 -5.576334,1.518661 -8.067927,2.242407 -2.491592,0.723746 -4.793279,1.435607 -6.822164,2.183083 -2.028886,0.747476 -3.784809,1.530523 -5.588261,2.432245 -1.803452,0.901722 -3.654291,1.922058 -5.26791,2.918702 -1.613619,0.996643 -2.98988,1.969518 -4.223819,2.883106 -1.233938,0.913587 -2.3254569,1.767819 -3.061098,2.432272 -0.735641,0.664454 -1.1152984,1.139024 -1.2457813,1.993416 -0.1304828,0.854393 -0.011839,2.088283 0.3204144,3.512063 0.3322535,1.423781 0.8780151,3.03734 1.4357471,4.069519 0.5577319,1.032179 1.1272238,1.483025 1.9340248,1.755809 0.8068,0.272784 1.850863,0.367698 3.725483,0.403276 1.874621,0.03558 4.579694,0.01184 9.123892,-0.130539 4.544199,-0.142384 10.927224,-0.403398 16.551088,-0.652558 5.623864,-0.24916 10.48825,-0.486449 12.920367,-0.593089 2.432116,-0.106641 2.432116,-0.08317 2.432116,-0.05944 0,0 0.783063,2.34919 0.783063,2.34919 4.152609,-0.5695 8.305437,-1.13903 12.090287,-1.542422 3.78485,-0.403393 7.20179,-0.640682 10.10866,-0.66439 2.90687,-0.02371 5.30347,0.166121 6.786557,0.296641 1.483087,0.13052 2.052571,0.201708 3.642461,0.593271 1.58989,0.391564 4.20005,1.103423 6.25264,1.649194 2.052589,0.545771 3.54749,0.925427 4.377995,1.19841 0.8305,0.272983 0.99634,0.438819 1.16244,0.604926 0,0 -0.5695,1.139 -0.5695,1.139 0,0 1.35257,0.49831 1.35257,0.49831 0,0 1.21291,-2.31857 1.21291,-2.31857 0,0 -2.35191,-0.95606 -2.35191,-0.95606 -0.949171,-0.21356 -1.89803,-0.42705 -2.918397,-0.699926 -1.020367,-0.272876 -2.111886,-0.60508 -3.666168,-1.008492 -1.554283,-0.403412 -3.571223,-0.877985 -5.232285,-1.245796 -1.661062,-0.367811 -2.966133,-0.628825 -4.757732,-0.771231 -1.791599,-0.142406 -4.069548,-0.166139 -6.632342,-0.106825 -2.562793,0.05931 -5.410233,0.201684 -8.767968,0.557617 -3.357735,0.355932 -7.225734,0.925453 -11.09359,1.494953 0,0 -0.854253,-3.20344 -0.854253,-3.20344 -2.942419,0.213563 -5.884594,0.427109 -13.098376,0.700004 -7.213781,0.272895 -18.698478,0.605099 -24.796854,0.628893 -6.098377,0.0238 -6.81024,-0.26095 -7.367953,-0.771043 -0.557713,-0.510093 -0.961101,-1.245684 -1.198468,-2.064364 -0.237368,-0.818681 -0.308554,-1.720371 -0.296712,-2.574657 0.01184,-0.854287 0.106755,-1.661057 0.794947,-2.551043 0.688193,-0.889986 1.969545,-1.862864 3.369587,-2.883233 1.400043,-1.020368 2.918679,-2.08816 4.615361,-3.096668 1.696682,-1.008509 3.571251,-1.957659 5.849302,-2.930567 2.27805,-0.972907 4.959394,-1.969512 7.427272,-2.752577 2.467879,-0.783065 4.722105,-1.352554 6.917072,-1.933926 2.194967,-0.581372 4.330551,-1.17459 6.691631,-1.82715 2.36108,-0.652559 4.947512,-1.364422 7.973009,-2.278008 3.025497,-0.913587 6.489892,-2.028836 9.610295,-3.132255 3.120403,-1.103418 5.896664,-2.19494 8.589941,-3.357683 2.693277,-1.162743 5.303437,-2.396637 7.98484,-3.879723 2.681403,-1.483087 5.433934,-3.215282 7.972968,-4.923794 2.539033,-1.708513 4.864445,-3.39325 7.308583,-5.125501 2.444137,-1.732251 5.00684,-3.511905 6.63231,-4.591592 1.62548,-1.079687 2.31361,-1.459346 2.89508,-1.625412 0.58146,-0.166067 1.05576,-0.118637 1.53034,-0.07118 0.35594,0.28475 0.71217,0.569733 1.12739,1.032492 0.41523,0.462758 0.88981,1.103432 1.36437,1.850919 0.47457,0.747488 0.94914,1.60172 1.54239,2.574625 0.59325,0.972905 1.30511,2.064424 2.11192,3.239027 0.80681,1.174603 1.7085,2.432224 2.80006,3.986505 1.09155,1.554281 2.3729,3.40512 3.47634,4.852601 1.10343,1.447482 2.02885,2.491546 2.8238,3.298327 0.79496,0.80678 1.45907,1.376023 2.12349,1.945523 0.14238,0.237292 0.28494,0.474897 0.32042,0.771459 0.0355,0.296561 -0.0357,0.652496 -0.23741,1.067688 -0.2017,0.415191 -0.5339,0.889765 -1.3958,1.804839 -0.8619,0.915074 -2.25344,2.270602 -3.27378,3.124853 -1.02034,0.854251 -1.66942,1.207147 -2.44489,1.846359 -0.77546,0.639211 -1.67715,1.564625 -2.53139,2.359547 -0.85425,0.794921 -1.66103,1.459327 -2.31359,2.005106 -0.65256,0.545779 -1.15086,0.972897 -1.95764,1.542392 -0.80678,0.569496 -1.92202,1.281353 -2.65769,1.957708 -0.73567,0.676355 -1.0916,1.317033 -1.37635,2.052692 -0.28475,0.735658 -0.49831,1.566168 -1.06782,3.773016 -0.56952,2.206849 -1.49494,5.789879 -2.07631,7.806826 -0.58137,2.016947 -0.81865,2.467786 -1.05583,2.728731 -0.23717,0.260945 -0.47448,0.332135 -0.59321,0.379754 -0.11873,0.04762 -0.11873,0.07109 -0.11873,0.09482 0.70557,0.347227 1.41146,0.694612 1.86223,0.836883 0.45078,0.142271 0.64692,0.07979 1.00606,0.02484 0.35913,-0.05495 0.88117,-0.102408 1.62868,0.0163 0.74752,0.118707 1.72039,0.403449 2.95433,0.75939 1.23393,0.355941 2.72884,0.783056 4.40175,1.055906 1.67291,0.27285 3.52375,0.391494 5.45767,0.332148 1.93393,-0.05935 3.95087,-0.296633 5.69495,-0.616992 1.74408,-0.320358 3.21526,-0.723747 5.35088,-1.69666 2.13561,-0.972914 4.9356,-2.515278 7.2492,-3.867847 2.3136,-1.35257 4.14071,-2.515277 5.5526,-3.440722 1.41189,-0.925445 2.40849,-1.613575 2.91862,-1.981309 0.51012,-0.367734 0.53391,-0.415295 0.55764,-0.462755 0,0 -0.78306,-1.35256 -0.78306,-1.35256 -0.18983,0.28475 -0.3797,0.569557 -0.65257,0.878006 -0.27287,0.30845 -0.6288,0.64065 -1.91016,1.459301 -1.28136,0.818651 -3.48814,2.12373 -5.8492,3.416982 -2.36107,1.293252 -4.87631,2.574601 -6.46618,3.405128 -1.58987,0.830526 -2.25428,1.210189 -3.01355,1.471216 -0.75928,0.261027 -1.61373,0.403434 -2.46798,0.545807 0,0 -0.49832,-3.13225 -0.49832,-3.13225 0,0 -1.06781,0 -1.06781,0 0,0 -0.0712,2.91869 -0.0712,2.91869 -0.14237,0.237293 -0.28479,0.474663 -0.46261,0.593271 -0.17781,0.118609 -0.39137,0.118609 -1.67277,0.130475 -1.2814,0.01187 -3.63054,0.0356 -6.09839,-0.201665 -2.46784,-0.237263 -5.05427,-0.735563 -6.70346,-1.233804 -1.64918,-0.498241 -2.36105,-0.996546 -2.78828,-1.506677 -0.42723,-0.510131 -0.5696,-1.032163 -0.5578,-1.684779 0.0118,-0.652616 0.1779,-1.435666 0.64063,-3.227256 0.46272,-1.79159 1.22204,-4.59158 1.69662,-6.252645 0.47458,-1.661065 0.66441,-2.183096 1.0204,-2.64591 0.35599,-0.462815 0.87802,-0.866199 1.77975,-1.5069 0.90173,-0.640702 2.18308,-1.518663 3.12036,-2.254255 0.93729,-0.735592 1.5305,-1.328812 2.32544,-2.123748 0.79494,-0.794937 1.79154,-1.791545 2.67303,-2.495456 0.88149,-0.703912 1.64771,-1.115038 2.43494,-1.699073 0.78722,-0.584035 1.59552,-1.340999 2.38699,-2.155788 0.79148,-0.81479 1.56612,-1.687372 2.19599,-2.241555 0.62986,-0.554183 1.1148,-0.789872 1.54201,-0.742259 0.42721,0.04761 0.79623,0.377972 1.16553,0.708583 1.80342,1.661043 3.60711,3.322336 5.17325,4.829159 1.56613,1.506824 2.89494,2.859362 4.43735,4.496702 1.54241,1.63734 3.29808,3.559086 5.05404,5.48115 0,0 1.99325,2.70513 1.99325,2.70513 0.26102,0.616957 0.52218,1.234234 0.62887,1.613824 0.10668,0.379591 0.0593,0.521799 0.0118,0.664176 0,0 0.92544,1.28138 0.92544,1.28138 0,0 0.71187,0.0712 0.71187,0.0712 0,0 0.78307,2.13563 0.78307,2.13563 0,0 2.91869,-1.49494 2.91869,-1.49494 -0.18983,-0.616957 -0.37957,-1.233601 -0.16608,-2.171018 0.21349,-0.937417 0.83044,-2.195048 1.76777,-3.571396 0.93733,-1.376349 2.19495,-2.871256 3.7611,-4.757747 1.56614,-1.886491 3.44071,-4.164448 5.06618,-6.133988 1.62546,-1.96954 3.00172,-3.630548 3.71366,-4.47297 0.71193,-0.842421 0.7593,-0.866107 0.80676,-0.889837 0,0 -0.21357,-3.559379 -0.21357,-3.559379 -1.5424,1.993252 -3.08482,3.986542 -4.88826,6.228971 -1.80344,2.242428 -3.86783,4.733939 -5.41024,6.656025 -1.54241,1.922087 -2.56275,3.274625 -3.41699,4.294967 -0.85424,1.020342 -1.54238,1.708477 -2.27787,2.076271 -0.73549,0.367794 -1.51853,0.415249 -2.26601,0.03572 -0.74747,-0.379529 -1.45934,-1.186306 -2.64581,-2.562614 -1.18648,-1.376309 -2.84749,-3.322066 -4.20005,-4.805162 -1.35257,-1.483095 -2.39663,-2.503429 -3.09045,-3.168503 -0.69382,-0.665073 -1.03764,-0.975085 -1.38119,-1.284855 1.47163,-1.787627 2.94302,-3.574962 3.66168,-4.473018 0.71866,-0.898057 0.68357,-0.906376 0.64875,-0.914633 0,0 1.17228,1.092578 1.17228,1.092578 0,0 1.63731,-1.779688 1.63731,-1.779688 0,0 -2.38761,-1.965564 -2.38761,-1.965564 0,0 -5.63232,7.274279 -5.63232,7.274279 0,0 -11.02557,-10.264158 -11.02557,-10.264158 0,0 4.76957,-4.271254 4.76957,-4.271254 0.21356,-0.166104 0.42716,-0.332235 0.67646,-0.344005 0.2493,-0.01177 0.53404,0.130601 0.77118,0.106791 0.23714,-0.02381 0.42697,-0.21364 0.6168,-0.403474 -0.30848,-0.189833 -0.61665,-0.379473 -0.98452,-0.415187 -0.36788,-0.03571 -0.79499,0.08293 -1.83917,0.913489 -1.04419,0.830559 -2.70521,2.372932 -4.36625,3.915329 0,0 -3.34582,-3.844129 -3.34582,-3.844129 0,0 -2.34919,-3.132254 -2.34919,-3.132254 0.0237,-0.142375 0.0474,-0.28453 0.2136,-0.450769 0.16616,-0.166238 0.47463,-0.356066 3.1086,-2.4324 2.63397,-2.076334 7.59327,-6.039028 10.52385,-8.305182 2.93058,-2.266154 3.83227,-2.835644 5.13743,-3.46448 1.30516,-0.628837 3.01362,-1.316966 4.42553,-1.850875 1.41191,-0.53391 2.52701,-0.913517 3.64228,-1.293185 0,0 -0.56951,-1.566124 -0.56951,-1.566124 -2.06444,0.664417 -4.12871,1.328782 -5.89658,2.052532 -1.76788,0.723749 -3.23906,1.506796 -4.90015,2.669555 -1.6611,1.16276 -3.51194,2.705127 -5.03062,3.950917 -1.51867,1.245789 -2.70511,2.194939 -3.71361,3.001735 -1.0085,0.806797 -1.83904,1.471229 -2.66956,2.135646 -1.04408,0.545772 -2.08807,1.091491 -2.8474,1.483026 -0.75934,0.391534 -1.23391,0.628819 -1.81518,0.676335 -0.58127,0.04752 -1.26941,-0.09486 -1.76777,-0.379494 -0.49836,-0.284636 -0.80683,-0.711751 -1.95774,-2.657573 -1.1509,-1.945821 -3.14411,-5.410212 -4.15268,-7.284837 -1.00857,-1.874625 -1.0323,-2.159367 -0.75944,-2.705264 0.27286,-0.545897 0.84234,-1.352674 1.7679,-1.957824 0.92555,-0.60515 2.2069,-1.008537 9.2546,-3.037418 7.0477,-2.02888 19.86121,-5.683104 26.33935,-7.486442 6.47814,-1.803339 6.62051,-1.755882 7.16919,-1.767016 0.54868,-0.01113 1.50369,-0.08073 3.13006,-0.326967 1.62637,-0.246233 3.92396,-0.669054 5.40409,-1.013934 1.48013,-0.344881 2.14258,-0.611715 2.80518,-0.87861 0,0 -0.35594,-2.278002 -0.35594,-2.278002 0,0 -3.42987,1.317319 -3.42987,1.317319 -1.0321,0.185312 -2.06397,0.370583 -3.56865,0.566301 -1.50468,0.195718 -3.48186,0.401817 -5.34849,0.730288 -1.86662,0.328472 -3.62255,0.779319 -6.28026,1.479339 -2.6577,0.70002 -6.21701,1.649169 -12.49348,3.428883 -6.27646,1.779714 -15.26964,4.389872 -20.14596,5.730586 -4.87633,1.340713 -5.63565,1.4119 -6.34749,1.281477 -0.71184,-0.130422 -1.37624,-0.462623 -1.95767,-0.996466 -0.58143,-0.533843 -1.07973,-1.269433 -1.44755,-1.838934 -0.36781,-0.569501 -0.60528,-0.973202 -0.84257,-1.376598 -0.90171,0.332209 -1.80328,0.664365 -2.254205,0.830496 -0.450928,0.166131 -0.450928,0.166093 0.296645,1.328979 z"
       id="path20987"
       inkscape:path-effect="#path-effect20989"
       inkscape:original-d="m 99.271167,26.661082 c 1.495213,2.325725 2.990143,4.651184 4.484823,6.97638 0.23756,0.546047 0.47484,1.091808 0.71187,1.637316 -0.47432,0.688424 -0.9489,1.376555 -1.42375,2.064437 -3.867673,2.847825 -7.735453,5.69527 -11.603573,8.542507 -1.66081,1.068099 -3.32182,2.135891 -4.98313,3.20344 -1.30487,0.807075 -2.60995,1.61385 -3.91532,2.420379 -2.49135,1.495232 -4.98286,2.990141 -7.47469,4.484815 -1.51843,0.759616 -3.03707,1.518933 -4.556,2.278004 -1.75573,0.712153 -3.51166,1.424014 -5.26788,2.135627 -1.66082,0.498586 -3.32182,0.996889 -4.983133,1.494938 -3.084592,0.87826 -6.169324,1.756225 -9.254384,2.63394 -3.10832,0.830802 -6.216782,1.661308 -9.32557,2.491563 -2.681187,0.735886 -5.362533,1.471475 -8.044193,2.206815 -2.301513,0.712156 -4.6032,1.424017 -6.905194,2.135627 -1.755733,0.783344 -3.511656,1.566392 -5.26788,2.34919 -1.85065,1.020639 -3.701489,2.040975 -5.552631,3.06107 -1.376055,0.97318 -2.75232,1.94605 -4.128878,2.91869 -1.091301,0.85453 -2.1828208,1.70876 -3.2746258,2.56275 -0.379413,0.47486 -0.759071,0.94943 -1.139003,1.42375 0.118912,1.23421 0.237557,2.4681 0.355939,3.70175 0.546047,1.61388 1.091806,3.22744 1.637313,4.84076 0.569778,0.45112 1.1392668,0.90197 1.7085018,1.35256 1.044369,0.0952 2.088433,0.1901 3.132251,0.28475 2.705447,-0.0235 5.41052,-0.0472 8.115382,-0.0712 6.383544,-0.26076 12.766569,-0.52177 19.149454,-0.78306 4.864846,-0.23703 9.729232,-0.47432 14.593451,-0.71188 2.65e-4,0.024 0,0.0712 0,0.0712 l 0.783063,2.34919 c 0,0 8.305477,-1.13874 12.457827,-1.7085 3.41733,-0.23703 6.83427,-0.47432 10.25101,-0.71188 2.39696,0.19011 4.79356,0.37994 7.18994,0.5695 0.56978,0.0715 1.13927,0.14264 1.7085,0.21357 2.61053,0.71215 5.22069,1.42401 7.83063,2.13562 1.49524,0.37994 2.99014,0.7596 4.484823,1.139 0.16637,0.16638 0.49831,0.49832 0.49831,0.49832 l -0.5695,1.139 1.35257,0.49831 1.21291,-2.31857 -2.35191,-0.95606 c 0,0 -1.898073,-0.42686 -2.847513,-0.64068 -1.0913,-0.33196 -2.18282,-0.66416 -3.27462,-0.99663 -2.01676,-0.47433 -4.0337,-0.9489 -6.05095,-1.42375 -1.30487,-0.26076 -2.60994,-0.52178 -3.91531,-0.78306 -2.27779,-0.0235 -4.55574,-0.0472 -6.83401,-0.0712 -2.8473,0.14264 -5.69474,0.28501 -8.54251,0.42712 -3.86767,0.56978 -11.603569,1.7085 -11.603569,1.7085 l -0.854253,-3.20344 c 0,0 -5.884574,0.42739 -8.827256,0.64069 -11.484893,0.33248 -22.96959,0.66468 -34.45478,0.99663 -0.711626,-0.28449 -1.423487,-0.56924 -2.135626,-0.85425 -0.403141,-0.73536 -0.80653,-1.47095 -1.210191,-2.20682 -0.07092,-0.90146 -0.142111,-1.80315 -0.213561,-2.70512 0.09518,-0.80655 0.190097,-1.61332 0.28475,-2.42038 1.281665,-0.97265 2.563016,-1.94553 3.844128,-2.91869 1.518962,-1.06757 3.037599,-2.13536 4.556003,-3.20344 1.874909,-0.94892 3.749477,-1.898072 5.623817,-2.847505 2.681719,-0.996381 5.363062,-1.992987 8.044196,-2.989876 2.254583,-0.569249 4.508809,-1.138738 6.762818,-1.708502 2.135934,-0.592976 4.271518,-1.186196 6.40688,-1.779688 2.586797,-0.711626 5.173229,-1.423488 7.759444,-2.135629 3.464795,-1.115029 6.92919,-2.230279 10.39339,-3.345815 2.77663,-1.091298 5.55289,-2.182821 8.32894,-3.274627 2.61053,-1.233678 5.22069,-2.467573 7.83063,-3.701753 2.75291,-1.732002 5.50544,-3.464198 8.25776,-5.196692 2.32577,-1.684541 4.65118,-3.369281 6.97638,-5.054317 2.56307,-1.77946 5.125773,-3.559114 7.688263,-5.339067 0.68842,-0.379412 1.37655,-0.759071 2.06444,-1.139002 0.47485,0.04772 1.42375,0.142375 1.42375,0.142375 0,0 0.71214,0.569765 1.06781,0.85425 0.47486,0.640966 0.94943,1.281642 1.42375,1.922065 0.47486,0.854533 0.94943,1.708767 1.42375,2.562752 0.71216,1.09183 1.42402,2.18335 2.13563,3.274629 0.90199,1.257935 1.80368,2.515558 2.70513,3.77294 1.28166,1.851178 2.56301,3.702018 3.84413,5.55263 0.92572,1.044369 1.85114,2.088433 2.77631,3.132254 0.6647,0.569775 1.99325,1.708499 1.99325,1.708499 0,0 0.28502,0.47485 0.42713,0.711877 -0.0709,0.356209 -0.14211,0.71214 -0.21357,1.067814 -0.33195,0.474858 -0.66415,0.949431 -0.99662,1.423752 -1.39137,1.355886 -2.78291,2.711414 -4.17482,4.066778 -0.64886,0.353183 -1.29794,0.706082 -1.94731,1.058725 -0.90147,0.925721 -1.80315,1.851141 -2.70513,2.776315 -0.80654,0.664694 -1.61332,1.3291 -2.42038,1.993252 -0.49806,0.427397 -0.99636,0.854516 -1.49493,1.281376 -1.11504,0.71215 -2.23028,1.42401 -3.34582,2.13563 -0.35568,0.64096 -0.71161,1.28164 -1.06781,1.92206 -0.21331,0.8308 -0.42687,1.66131 -0.64069,2.49157 -0.92519,3.58344 -1.85061,7.16647 -2.77632,10.74932 -0.23703,0.45113 -0.47431,0.90197 -0.71187,1.35256 -0.23703,0.0714 -0.47432,0.14264 -0.71188,0.21356 2.7e-4,0.024 0,0.0712 0,0.0712 0,0 1.41141,0.69472 2.11671,1.04168 0.1964,-0.0622 0.39254,-0.12469 0.58842,-0.18743 0.52232,-0.0472 1.04435,-0.0947 1.56613,-0.14237 0.97318,0.28502 1.94605,0.56976 2.91869,0.85425 1.49523,0.4274 2.99014,0.85451 4.48481,1.28137 1.85118,0.11892 3.70202,0.23756 5.55263,0.35594 2.01729,-0.23703 4.03423,-0.47432 6.05094,-0.71187 1.47151,-0.40314 2.94269,-0.80653 4.41363,-1.21019 2.80037,-1.54217 5.60036,-3.08453 8.40014,-4.62719 1.82744,-1.16249 3.65455,-2.3252 5.48144,-3.48819 0.99691,-0.6879 1.99351,-1.37603 2.98987,-2.06444 0.024,-0.0472 0.0712,-0.14238 0.0712,-0.14238 l -0.78306,-1.35256 c 0,0 -0.3794,0.56976 -0.5695,0.85425 -0.35568,0.33248 -0.71161,0.66468 -1.06781,0.99662 -2.2066,1.3054 -4.41337,2.61048 -6.62045,3.91532 -2.51508,1.28167 -5.03032,2.56302 -7.54588,3.84413 -0.66416,0.37994 -1.32857,0.7596 -1.99325,1.139 -0.854,0.14264 -2.56275,0.42712 -2.56275,0.42712 l -0.49832,-3.13225 h -1.06781 l -0.0712,2.91869 c 0,0 -0.28448,0.47485 -0.42712,0.71188 -0.2133,2.6e-4 -0.42686,2.6e-4 -0.64069,0 -2.34897,0.024 -4.69811,0.0477 -7.04757,0.0712 -2.58627,-0.49805 -5.1727,-0.99636 -7.75944,-1.49493 -0.71163,-0.49806 -1.42349,-0.99637 -2.13563,-1.49494 -0.14211,-0.52179 -0.28449,-1.04382 -0.42712,-1.56613 0.16637,-0.78281 0.33247,-1.56586 0.49831,-2.34919 0.75961,-2.79983 1.51893,-5.59982 2.278,-8.40013 0.1901,-0.52179 0.37993,-1.04382 0.5695,-1.56613 0.52232,-0.40314 1.04435,-0.80652 1.56613,-1.21019 1.28166,-0.87773 2.56301,-1.75569 3.84413,-2.63394 0.5935,-0.592973 1.18672,-1.18619 1.77968,-1.779685 0.99691,-0.996381 1.99352,-1.992987 2.98988,-2.989879 0.76652,-0.410881 1.53274,-0.822006 2.29871,-1.233406 0.80857,-0.756714 1.61686,-1.513679 2.42492,-2.270937 0.77492,-0.872348 1.54956,-1.744925 2.32394,-2.617787 0.48523,-0.235435 0.97017,-0.471123 1.45485,-0.707081 0.36957,0.330876 1.1079,0.991834 1.1079,0.991834 0,0 3.6071,3.322349 5.41026,4.983128 1.32912,1.352854 2.65793,2.705391 3.9865,4.057692 1.75626,1.922371 5.26788,5.766191 5.26788,5.766191 l 1.99325,2.70513 c 0,0 0.52231,1.23418 0.78307,1.85087 -0.0472,0.14265 -0.14238,0.42713 -0.14238,0.42713 l 0.92544,1.28138 0.71187,0.0712 0.78307,2.13563 2.91869,-1.49494 c 0,0 -0.37941,-1.23365 -0.5695,-1.85087 0.61723,-1.25741 1.23418,-2.51504 1.85087,-3.77295 1.25794,-1.4947 2.51556,-2.98961 3.77294,-4.48481 1.87491,-2.277785 3.74948,-4.555742 5.62382,-6.834008 1.37659,-1.660811 2.75285,-3.321823 4.12888,-4.983128 0.0477,-0.02347 0.14238,-0.07119 0.14238,-0.07119 l -0.21357,-3.559379 c 0,0 -3.08453,3.986768 -4.62719,5.979756 -2.06422,2.49188 -4.12861,4.983395 -6.19332,7.474693 -1.02011,1.352856 -2.04044,2.705396 -3.06106,4.057696 -0.6879,0.68842 -1.37603,1.37656 -2.06444,2.06444 -0.78282,0.0477 -1.56586,0.0952 -2.34919,0.14237 -0.71163,-0.80654 -1.42349,-1.61332 -2.13563,-2.42038 -1.66081,-1.94556 -3.32182,-3.89132 -4.98313,-5.837378 -1.04384,-1.020109 -2.0879,-2.040445 -3.13225,-3.061065 -0.3433,-0.309513 -1.03066,-0.929311 -1.03066,-0.929311 0,0 2.94331,-3.574723 4.41489,-5.362881 -0.0346,-0.008 -0.10446,-0.02477 -0.10446,-0.02477 l 1.17228,1.092578 1.63731,-1.779688 -2.38761,-1.965564 -5.63232,7.274279 -11.02557,-10.264158 4.76957,-4.271254 c 0,0 0.42739,-0.331943 0.64069,-0.498311 0.28502,0.142642 0.56976,0.285015 0.85425,0.427125 0.1901,-0.189574 0.5695,-0.569502 0.5695,-0.569502 0,0 -0.61669,-0.379402 -0.92544,-0.5695 -0.42687,0.118914 -0.85398,0.237556 -1.28137,0.355939 -1.66082,1.542692 -4.98313,4.627192 -4.98313,4.627192 l -3.34582,-3.844129 -2.34919,-3.132254 c 0,0 0.0477,-0.284485 0.0712,-0.427125 0.30875,-0.189574 0.61722,-0.379402 0.92544,-0.569499 4.95976,-3.962591 9.91906,-7.925284 14.8782,-11.888325 0.90199,-0.569245 1.80368,-1.138735 2.70512,-1.708502 1.70881,-0.687895 3.41727,-1.376026 5.12551,-2.064437 1.11556,-0.37941 3.34582,-1.139003 3.34582,-1.139003 l -0.56951,-1.566124 c 0,0 -4.12861,1.329097 -6.19331,1.993252 -1.47098,0.783341 -2.94216,1.566389 -4.41363,2.349188 -1.85065,1.542692 -3.70149,3.08506 -5.55263,4.627192 -1.18622,0.949452 -2.37266,1.898599 -3.55938,2.847501 -0.83027,0.664697 -2.49157,1.993252 -2.49157,1.993252 0,0 -2.0879,1.091808 -3.13225,1.637316 -0.47433,0.237561 -0.9489,0.474847 -1.42375,0.711874 -0.68789,-0.142113 -1.37603,-0.284485 -2.06444,-0.427125 -0.30822,-0.42687 -0.61669,-0.853987 -0.92544,-1.281377 -1.99302,-3.464266 -3.98623,-6.928657 -5.97975,-10.393383 -0.0235,-0.284491 -0.0472,-0.569235 -0.0712,-0.85425 0.56978,-0.806545 1.13927,-1.613321 1.7085,-2.420379 1.28167,-0.403138 2.56302,-0.806527 3.84413,-1.210188 12.81428,-3.654102 25.62779,-7.308324 38.44128,-10.962884 0.14265,0.04772 0.28502,0.09518 0.42713,0.142375 0.95532,-0.06934 1.91033,-0.138937 2.86513,-0.208804 2.29798,-0.42258 4.59557,-0.8454 6.89302,-1.268508 0.66288,-0.266635 1.9878,-0.800685 1.9878,-0.800685 l -0.35594,-2.278002 -3.42987,1.317319 c 0,0 -2.06392,0.370884 -3.0963,0.555935 -1.977,0.206373 -3.95418,0.412471 -5.93165,0.618309 -1.75573,0.45113 -3.51166,0.901975 -5.26788,1.352566 -3.55919,0.949449 -7.1185,1.898599 -10.67814,2.847501 -8.99328,2.610527 -17.98646,5.220687 -26.98008,7.830632 -0.75909,0.07145 -1.51841,0.14264 -2.27801,0.213564 -0.66416,-0.331952 -1.32856,-0.664155 -1.99325,-0.996627 -0.49806,-0.735354 -0.99636,-1.470946 -1.49494,-2.206816 -0.23703,-0.403138 -0.71187,-1.210188 -0.71187,-1.210188 0,0 -1.80316,0.664683 -2.705133,0.996627 z"
       sodipodi:nodetypes="cccccccccccccccccccccccccccccccccccccccccccccccccccccccccccccccccccccccccccccccccccccccccccccccccccccccccccccccccccccccccccccccsccsccccccccccccccccccccccccccccccccccccccccccccccccccccccccccccccccccccccccccccccccc" /><path
       style="fill:none;stroke:#1dd0ff;stroke-width:1.365;stroke-dasharray:none;stroke-opacity:1"
       d="m 3.5044662,95.75229 c 2.6379416,0.439656 5.2755871,0.879263 8.9573368,1.263908 3.681749,0.384645 8.407432,0.714345 13.627818,0.879188 5.220386,0.164844 10.935166,0.164844 15.935735,0.05493 5.000569,-0.109911 9.286655,-0.32971 13.188189,-0.714382 3.901534,-0.384673 7.418324,-0.934173 11.292411,-1.456207 3.874087,-0.522035 8.105147,-1.016573 11.896855,-1.098973 3.791709,-0.0824 7.143649,0.247296 9.946181,0.686932 2.802532,0.439636 5.055482,0.989137 7.638206,1.813435 2.582725,0.824298 5.495062,1.923296 9.066912,2.961155 3.57184,1.03785 7.80288,2.01453 11.81123,2.05104 4.00835,0.0365 7.7936,-0.86705 11.71902,-2.375603 3.92542,-1.508556 7.99061,-3.621922 11.61105,-5.658286 3.62044,-2.036365 6.79573,-3.995486 10.81087,-5.887767 4.01514,-1.89228 8.86968,-3.717521 13.72417,-5.542744"
       id="path1128"
       inkscape:path-effect="#path-effect1130"
       inkscape:original-d="m 3.5044662,95.75229 c 2.637906,0.43987 5.275551,0.87948 7.9129308,1.31882 4.726138,0.32998 9.451821,0.65968 14.177335,0.98912 5.715275,2.6e-4 11.430055,2.6e-4 17.144685,0 4.286522,-0.21954 8.572608,-0.43934 12.858514,-0.65941 3.517194,-0.54926 7.033986,-1.09875 10.550576,-1.64853 4.23157,-0.4943 8.46263,-0.98884 12.69366,-1.48367 3.35233,0.32997 6.70427,0.65967 10.05602,0.98911 2.25329,0.54979 4.50624,1.09929 6.75896,1.64853 2.91272,1.09931 5.825063,2.1983 8.737193,3.29706 4.23157,0.977 8.46261,1.95368 12.69366,2.93016 3.78576,-0.90334 7.57102,-1.80689 11.35625,-2.71077 4.0657,-2.11323 8.13088,-4.2266 12.19605,-6.34036 3.17574,-1.95898 6.35103,-3.9181 9.52625,-5.8776 4.85499,-1.82505 9.70953,-3.65029 14.5639,-5.47583"
       sodipodi:nodetypes="ccccccccccccccc"
       inkscape:label="Kempt" /><path
       d="M 2.9843472,64.49675 C 13.204847,59.92813 23.425247,55.35957 32.821547,51.23845 c 9.39626,-4.12116 17.968,-7.79478 27.5056,-11.6805 9.53757,-3.88568 20.0404,-7.98317 32.0271,-11.963 11.986803,-3.97987 25.456703,-7.84187 37.184303,-11.233 11.7277,-3.39113 22.8068,-6.6513509 32.7915,-9.5714109"
       style="fill:none;stroke:#4d4d4d;stroke-width:1.165;stroke-dasharray:none;stroke-opacity:1"
       id="path1681"
       sodipodi:nodetypes="cccssc"
       inkscape:label="Rail" /><path
       d="m 2.5899472,63.60915 0.7888,1.7752 m 0.125,-2.1813 0.7889,1.7753 m 0.125,-2.1814 0.7888,1.7753 m 0.125,-2.1813 0.7888,1.7752 m 0.125,-2.1813 0.7889,1.7752 m 0.125,-2.1813 0.7888,1.7753 m 0.125,-2.1813 0.7889,1.7752 m 0.125,-2.1813 0.7888,1.7752 m 0.125,-2.1813 0.7887998,1.7753 m 0.125,-2.1813 0.7889,1.7752 m 0.125,-2.1813 0.7888,1.7752 m 0.125,-2.1813 0.7889,1.7753 m 0.125,-2.1813 0.7888,1.7752 m 0.125,-2.1813 0.7888,1.7752 m 0.125,-2.1813 0.7889,1.7753 m 0.125,-2.1814 0.7888,1.7753 m 0.125,-2.1813 0.7889,1.7752 m 0.125,-2.1813 0.7888,1.7753 m 0.125,-2.1814 0.7888,1.7753 m 0.125,-2.1813 0.7889,1.7752 m 0.125,-2.1813 0.7888,1.7752 m 0.125,-2.1813 0.7888,1.7753 m 0.1251,-2.1813 0.7888,1.7752 m 0.125,-2.1813 0.7888,1.7752 m 0.125,-2.1813 0.7889,1.7753 m 0.125,-2.1813 0.7888,1.7752 m 0.125,-2.1813 0.7888,1.7752 m 0.125,-2.1813 0.7889,1.7753 m 0.125,-2.1814 0.7888,1.7753 m 0.125,-2.1813 0.7889,1.7752 m 0.125,-2.1813 0.7888,1.7753 m 0.125,-2.1814 0.7888,1.7753 m 0.125,-2.1813 0.7889,1.7752 m 0.135,-2.182 0.7715,1.7829 m 0.1463,-2.18 0.7715,1.7828 m 0.1462,-2.18 0.7715,1.7829 m 0.1463,-2.18 0.7715,1.7828 m 0.1462,-2.18 0.7715,1.7829 m 0.1462,-2.18 0.7716,1.7828 m 0.1462,-2.18 0.7715,1.7828 m 0.1462,-2.1799 0.7716,1.7828 m 0.1462,-2.18 0.7715,1.7828 m 0.1462,-2.1799 0.7716,1.7828 m 0.1462,-2.18 0.7715,1.7828 m 0.1462,-2.1799 0.7715,1.7828 m 0.1463,-2.18 0.7715,1.7828 m 0.1462,-2.1799 0.7715,1.7828 m 0.1463,-2.18 0.7715,1.7828 m 0.1607,-2.1798 0.7471,1.7932 m 0.176,-2.1778 0.7471,1.7932 m 0.1759,-2.1778 0.7471,1.7932 m 0.176,-2.1778 0.7471,1.7932 m 0.176,-2.1778 0.7471,1.7932 m 0.176,-2.1778 0.7471,1.7932 m 0.1759,-2.1777 0.7472,1.7932 m 0.1759,-2.1778 0.7471,1.7932 m 0.176,-2.1778 0.7471,1.7932 m 0.176,-2.1778 0.7471,1.7932 m 0.176,-2.1778 0.7471,1.7932 m 0.1759,-2.1778 0.7471,1.7932 m 0.176,-2.1778 0.7471,1.7932 m 0.176,-2.1777 0.7471,1.7932 m 0.176,-2.1778 0.7471,1.7932 m 0.1965,-2.1765 0.712,1.8074 m 0.219,-2.1739 0.712,1.8074 m 0.218,-2.1739 0.712,1.8074 m 0.219,-2.1739 0.712,1.8074 m 0.218,-2.1739 0.712,1.8074 m 0.218,-2.1739 0.712,1.8074 m 0.219,-2.1738 0.712,1.8073 m 0.218,-2.1738 0.712,1.8074 m 0.219,-2.1739 0.711,1.8074 m 0.219,-2.1739 0.712,1.8074 m 0.218,-2.1739 0.712,1.8074 m 0.219,-2.1739 0.712,1.8074 m 0.218,-2.1739 0.712,1.8074 m 0.218,-2.1739 0.712,1.8074 m 0.219,-2.1739 0.712,1.8074 m 0.218,-2.1739 0.712,1.8074 m 0.242,-2.1767 0.669,1.8236 m 0.27,-2.1683 0.669,1.8236 m 0.269,-2.1682 0.67,1.8236 m 0.269,-2.1682 0.67,1.8235 m 0.269,-2.1682 0.669,1.8236 m 0.269,-2.1682 0.67,1.8235 m 0.269,-2.1682 0.67,1.8236 m 0.269,-2.1682 0.669,1.8235 m 0.27,-2.1682 0.669,1.8236 m 0.291,-2.1654 0.633,1.8368 m 0.313,-2.1623 0.632,1.8368 m 0.313,-2.1623 0.633,1.8368 m 0.313,-2.1623 0.632,1.8368 m 0.313,-2.1623 0.633,1.8368 m 0.313,-2.1622 0.632,1.8368 m 0.313,-2.1623 0.633,1.8368 m 0.313,-2.1623 0.632,1.8368 m 0.313,-2.1623 0.633,1.8368 m 0.334,-2.1634 0.594,1.8498 m 0.358,-2.1552 0.594,1.8497 m 0.359,-2.1552 0.593,1.8497 m 0.359,-2.1552 0.593,1.8497 m 0.359,-2.1552 0.593,1.8497 m 0.359,-2.1552 0.594,1.8498 m 0.358,-2.1553 0.594,1.8498 m 0.359,-2.1552 0.593,1.8497 m 0.359,-2.1552 0.593003,1.8497 m 0.359,-2.1552 0.593,1.8497 m 0.376,-2.151 0.565,1.8586 m 0.392,-2.1495 0.565,1.8585 m 0.391,-2.1495 0.566,1.8586 m 0.391,-2.1495 0.565,1.8586 m 0.392,-2.1495 0.565,1.8586 m 0.392,-2.1495 0.565,1.8586 m 0.391,-2.1495 0.566,1.8586 m 0.391,-2.1495 0.565,1.8586 m 0.392,-2.1495 0.565,1.8586 m 0.392,-2.1495 0.565,1.8585 m 0.404,-2.1451 0.544,1.8649 m 0.416,-2.145 0.544,1.8649 m 0.416,-2.1449 0.544,1.8648 m 0.416,-2.1449 0.544,1.8649 m 0.416,-2.145 0.544,1.8649 m 0.416,-2.1449 0.544,1.8648 m 0.416,-2.1449 0.544,1.8649 m 0.416,-2.145 0.544,1.8649 m 0.416,-2.1449 0.544,1.8648 m 0.416,-2.1449 0.544,1.8649 m 0.416,-2.145 0.544,1.8649 m 0.416,-2.1449 0.544,1.8649 m 0.416,-2.145 0.544,1.8649 m 0.416,-2.1449 0.544,1.8648 m 0.416,-2.1449 0.544,1.8649 m 0.416,-2.145 0.544,1.8649 m 0.416,-2.1449 0.544,1.8648 m 0.416,-2.1449 0.544,1.8649 m 0.416,-2.145 0.544,1.8649 m 0.416,-2.1449 0.543,1.8652 m 0.417,-2.1448 0.543,1.8651 m 0.417,-2.1447 0.544,1.8651 m 0.416,-2.1447 0.544,1.8651 m 0.417,-2.1447 0.543,1.8651 m 0.417,-2.1448 0.543,1.8652 m 0.417,-2.1448 0.543,1.8652 m 0.417,-2.1448 0.543,1.8651 m 0.417,-2.1447 0.543,1.8651 m 0.417,-2.1447 0.543,1.8651 m 0.417,-2.1447 0.543,1.8651 m 0.417,-2.1447 0.544,1.8651 m 0.416,-2.1448 0.544,1.8652 m 0.417,-2.1448 0.543,1.8652 m 0.417,-2.1448 0.543,1.8651 m 0.417,-2.1447 0.543,1.8651 m 0.417,-2.1447 0.543,1.8651 m 0.417,-2.1447 0.543,1.8651 m 0.417,-2.1448 0.543,1.8652 m 0.417,-2.1447999 0.543,1.8651999 m 0.417,-2.1447999 0.544,1.8650999 m 0.416,-2.1446999 0.544,1.8650999 m 0.417,-2.1446999 0.543,1.8650999 m 0.417,-2.1446999 0.543,1.8650999 m 0.417,-2.1447999 0.543,1.8651999 m 0.417,-2.1447999 0.543,1.8651999 m 0.417,-2.1447999 0.543,1.8651 m 0.417,-2.1447 0.543,1.8651 m 0.417,-2.1447 0.543,1.8651 m 0.417,-2.1447 0.544,1.8651 m 0.416,-2.1448 0.544,1.8652 m 0.417,-2.1448 0.543,1.8652 m 0.417,-2.1448 0.543,1.8651 m 0.417,-2.1447 0.543,1.8651"
       style="fill:none;stroke:#4d4d4d;stroke-width:0.465;stroke-dasharray:none;stroke-opacity:1"
       id="path8160"
       inkscape:label="Track" /><path
       style="fill:#c8c8c8;fill-opacity:1;stroke:none;stroke-width:0.1;stroke-dasharray:none;stroke-opacity:1"
       d="m 147.38542,88.958173 c 0.16824,0.446183 0.82251,2.18143 1.09424,3.222611 0.27174,1.04118 0.32,1.809883 0.17181,2.571045 -0.1482,0.761162 -0.4927,1.514758 -0.83726,2.268491 0,0 2.66268,0.0294 2.66268,0.0294 0.0333,-0.36937 0.0665,-0.738496 0.24465,-1.160166 0.17815,-0.42167 0.50117,-0.89543 0.85661,-1.18621 0.35544,-0.290781 0.74307,-0.398456 1.18462,-0.387622 0.44154,0.01083 0.93684,0.140045 1.29214,0.323194 0.3553,0.183149 0.57065,0.420032 0.75364,0.710782 0.183,0.29075 0.33374,0.635308 0.3875,0.958288 0.0537,0.322981 0.0107,0.624251 -0.0324,0.925744 0,0 2.97186,0.0646 2.97186,0.0646 0.25842,-0.323027 0.51682,-0.646021 1.00142,-1.033697 0.4846,-0.387676 1.19525,-0.839907 2.26126,-1.453672 1.06602,-0.613764 2.48732,-1.38902 3.18716,-1.765855 0.69984,-0.376836 0.67832,-0.355319 0.65679,-0.333786 0,0 0,-3.61791 0,-3.61791 -0.66759,0.323027 -1.33507,0.646 -2.3903,1.109013 -1.05523,0.463012 -2.49806,1.065986 -3.75785,1.496697 -1.25979,0.43071 -2.33654,0.689126 -3.15482,0.743026 -0.81828,0.0539 -1.37818,-0.09684 -1.91658,-0.398254 -0.53841,-0.301416 -1.05525,-0.753649 -1.69279,-1.604882 -0.63754,-0.851234 -1.39584,-2.10179 -2.15397,-3.35206 0,0 -2.95866,1.425 -2.95866,1.425 0,0 -2e-5,4e-5 0.16821,0.446223 z"
       id="path6124"
       inkscape:path-effect="#path-effect6126"
       inkscape:original-d="m 147.21719,88.51199 c -0.62801,1.25602 0.99088,2.62756 1.48593,3.94095 0.0485,0.76901 0.0968,1.53771 0.14478,2.30618 -0.3443,0.75402 -1.03369,2.2612 -1.03369,2.2612 l 2.66268,0.0294 c 0,0 0.0668,-0.73847 0.0998,-1.10811 0.3233,-0.47352 0.64632,-0.94728 0.96909,-1.42132 0.3879,-0.10742 0.77553,-0.21509 1.1629,-0.32303 0.49558,0.12948 0.99088,0.25869 1.48593,0.38764 0.21562,0.23715 0.43097,0.47403 0.64605,0.71066 0.15102,0.34483 0.30176,0.68939 0.45224,1.03369 -0.0428,0.30176 -0.12921,0.90448 -0.12921,0.90448 l 2.97186,0.0646 c 0,0 0.51711,-0.64579 0.77527,-0.96908 0.71094,-0.45199 1.42159,-0.90422 2.13199,-1.35672 1.42161,-0.77502 2.84291,-1.55027 4.26397,-2.32581 -0.0213,0.0218 -0.0646,0.0646 -0.0646,0.0646 v -3.61791 c 0,0 -1.33492,0.64631 -2.00277,0.96908 -1.44263,0.60326 -2.88546,1.20623 -4.32858,1.80896 -1.07652,0.25869 -2.15326,0.51711 -3.23028,0.77526 -0.55967,-0.15048 -1.11957,-0.30122 -1.67975,-0.45223 -0.51659,-0.45199 -1.03343,-0.90422 -1.55054,-1.35672 -0.75788,-1.25003 -2.27439,-3.75081 -2.27439,-3.75081 l -2.95866,1.425 z"
       sodipodi:nodetypes="sccccccccccccccccccccccccs" /><path
       style="fill:#c8c8c8;fill-opacity:1;stroke:none;stroke-width:0.1;stroke-dasharray:none;stroke-opacity:1"
       d="m 82.728457,110.4607 c -0.25725,-0.14087 -0.772377,-0.42297 -1.28719,-0.70489 5.197163,-2.42698 10.394442,-4.85401 13.262686,-6.20233 2.868244,-1.34832 3.407564,-1.61798 3.903922,-2.07759 0.496358,-0.4596 0.94988,-1.10924 1.293084,-1.728203 0.343201,-0.618963 0.576151,-1.20745 0.809041,-1.795807 0,0 1.39735,0.51481 1.39735,0.51481 -0.35547,0.62513 -0.71099,1.250351 -1.0971,1.91838 -0.38611,0.66804 -0.80286,1.37896 -1.495322,1.92435 -0.692465,0.54539 -1.660788,0.92537 -3.162361,1.6118 -1.501574,0.68642 -3.536267,1.67926 -4.602752,2.29223 -1.066485,0.61297 -1.164544,0.84585 -1.121538,1.15851 0.04301,0.31266 0.226864,0.70489 1.409732,3.22385 1.182867,2.51896 3.364652,7.16444 4.492365,9.54238 1.127714,2.37794 1.201261,2.48826 1.354538,2.60464 0.153276,0.11637 0.386169,0.23895 0.674163,0.26949 0.287994,0.0305 0.631197,-0.0307 1.581115,-0.45365 0.94992,-0.42289 2.50659,-1.20736 5.50358,-2.73343 2.997,-1.52608 7.4341,-3.79366 11.38103,-5.96325 3.94692,-2.16959 7.40346,-4.24106 10.70689,-6.06744 3.30343,-1.82638 6.45353,-3.40756 9.68953,-5.07459 3.236,-1.66703 6.5577,-3.419813 8.30434,-4.388124 1.74664,-0.96831 1.91825,-1.152176 2.08985,-1.336036 0,0 2.64762,0.0368 2.64762,0.0368 0.049,0.257407 0.0981,0.515116 0.28207,0.821545 0.18396,0.306429 0.50265,0.661889 0.86428,0.882415 0.36163,0.220527 0.76611,0.306325 1.15219,0.324662 0.38608,0.01834 0.75379,-0.03069 1.04788,-0.134882 0.29409,-0.10419 0.51473,-0.263534 0.69241,-0.447347 0.17769,-0.183813 0.31252,-0.392193 0.41875,-0.610754 0.10624,-0.218561 0.18395,-0.447566 0.2616,-0.676409 0,0 2.97424,0.0869 2.97424,0.0869 -0.12524,0.212123 -0.25053,0.424324 -0.39283,0.702014 -0.1423,0.277689 -0.30164,0.620888 -0.4242,1.166408 -0.12256,0.54552 -0.20836,1.293218 -0.18381,2.089988 0.0246,0.79677 0.15938,1.64252 0.40459,2.43928 0.24521,0.79675 0.60066,1.54444 0.99905,2.30441 0.39838,0.75997 0.83964,1.53217 1.39128,2.2063 0.55164,0.67413 1.21354,1.25022 1.81418,1.68533 0.60064,0.43511 1.13995,0.72928 1.75283,0.94373 0.61287,0.21445 1.29897,0.34922 1.98539,0.48405 0,0 0.0368,1.91217 0.0368,1.91217 -0.51481,-0.0613 -1.02933,-0.12254 -1.86284,-0.33702 -0.83351,-0.21448 -1.98569,-0.5822 -3.13179,-1.26855 -1.1461,-0.68635 -2.28602,-1.69145 -3.26056,-3.00297 -0.97453,-1.31153 -1.78351,-2.92949 -2.51278,-4.08171 -0.72928,-1.15223 -1.37892,-1.83864 -2.08983,-2.26776 -0.71092,-0.42911 -1.48312,-0.60071 -2.10218,-0.64366 -0.61906,-0.043 -1.08483,0.0428 -4.02059,1.36054 -2.93576,1.31769 -8.34119,3.86719 -11.50362,5.35648 -3.16244,1.48928 -4.08173,1.91829 -4.68855,2.32896 -0.60682,0.41068 -0.90099,0.80291 -1.09712,1.24427 -0.19612,0.44135 -0.29418,0.93164 -0.54545,4.65187 -0.25127,3.72023 -0.65576,10.67007 -0.864,14.14494 -0.20824,3.47486 -0.22077,3.47486 -0.23304,3.47486 0,0 -2.05925,-0.0368 -2.05925,-0.0368 0.37998,-6.05519 0.75994,-12.11013 0.89483,-15.31542 0.13489,-3.20529 0.0246,-3.56075 -0.25112,-3.89176 -0.2757,-0.33101 -0.71696,-0.63744 -1.24406,-0.78463 -0.52709,-0.14719 -1.13996,-0.13492 -1.66098,-0.0185 -0.52102,0.11642 -0.95002,0.33705 -7.90014,3.82437 -6.95011,3.48731 -20.420902,10.24109 -33.891853,16.99495 0,0 -6.87643,0.0368 -6.87643,0.0368 7.09707,-3.44434 14.194246,-6.88874 17.853051,-8.71508 3.658805,-1.82634 3.879433,-2.03471 3.989746,-2.39618 0.110313,-0.36146 0.110313,-0.87627 -0.0367,-1.44622 -0.147017,-0.56995 -0.44119,-1.19506 -1.56277,-3.6037 -1.12158,-2.40864 -3.070475,-6.6006 -4.142928,-8.7641 -1.072453,-2.1635 -1.268564,-2.29833 -1.50152,-2.3291 -0.232956,-0.0308 -0.50262,0.0428 -1.550686,0.53921 -1.048067,0.49643 -2.874395,1.41573 -3.787626,1.87541 -0.913232,0.45968 -0.913232,0.45966 -1.170482,0.31878 z"
       id="path10939"
       inkscape:path-effect="#path-effect10941"
       inkscape:original-d="m 82.985707,110.60158 c -0.51455,-0.28166 -1.54444,-0.84577 -1.54444,-0.84577 0,0 10.39459,-4.85369 15.59149,-7.28093 0.5396,-0.2694 1.07892,-0.53906 1.61798,-0.80899 0.4538,-0.64939 0.90732,-1.29903 1.360583,-1.94894 0.23316,-0.5881 0.69868,-1.76507 0.69868,-1.76507 l 1.39735,0.51481 c 0,0 -0.71067,1.25053 -1.0664,1.87539 -0.4165,0.71121 -0.83325,1.42213 -1.250263,2.1328 -0.9681,0.38025 -1.93642,0.76023 -2.90502,1.13994 -2.03452,0.99314 -4.06921,1.98598 -6.10422,2.97857 -0.0978,0.23316 -0.19585,0.46605 -0.29418,0.69867 0.18413,0.39251 0.36799,0.78474 0.55159,1.17672 2.18214,4.64593 4.36392,9.29142 6.54548,13.93673 0.0738,0.11059 0.14736,0.2209 0.22064,0.33095 0.23316,0.12284 0.46605,0.24542 0.69867,0.36772 0.34348,-0.061 0.68668,-0.1223 1.02963,-0.18386 1.556993,-0.78422 3.113663,-1.56869 4.670093,-2.35343 4.43756,-2.26741 8.87467,-4.53499 13.3116,-6.80289 3.45694,-2.07129 6.91348,-4.14276 10.36982,-6.21453 3.15049,-1.58098 6.30059,-3.16216 9.4505,-4.74364 3.3221,-1.75259 6.6438,-3.50537 9.96531,-5.25845 0.17187,-0.1836 0.51481,-0.55158 0.51481,-0.55158 l 2.64762,0.0368 c 0,0 0.0983,0.51508 0.14708,0.77222 0.31897,0.35574 0.63766,0.7112 0.95609,1.0664 0.40476,0.0861 0.80925,0.17187 1.21348,0.2574 0.368,-0.0488 0.73572,-0.0978 1.10318,-0.14709 0.2209,-0.15908 0.44153,-0.31843 0.6619,-0.47803 0.1351,-0.20812 0.26993,-0.4165 0.40449,-0.62514 0.0779,-0.22858 0.23296,-0.68653 0.23296,-0.68653 l 2.97424,0.0869 c 0,0 -0.25021,0.42451 -0.37572,0.63637 -0.15909,0.34348 -0.31843,0.68668 -0.47804,1.02962 -0.0855,0.74799 -0.17134,1.49568 -0.25741,2.24312 0.1351,0.84604 0.26993,1.69179 0.4045,2.53729 0.35574,0.74799 0.71119,1.49568 1.0664,2.24312 0.44154,0.7725 0.8828,1.5447 1.3238,2.31666 0.66218,0.57637 1.32407,1.15246 1.98571,1.7283 0.53961,0.29445 1.07892,0.58862 1.61799,0.88254 0.68669,0.1351 2.05925,0.40449 2.05925,0.40449 l 0.0368,1.91217 c 0,0 -1.02936,-0.12231 -1.54444,-0.18387 -1.15196,-0.36746 -2.30414,-0.73518 -3.4566,-1.10317 -1.1397,-1.00487 -2.27963,-2.00996 -3.41983,-3.01533 -0.80875,-1.61775 -1.61772,-3.23571 -2.42698,-4.85396 -0.64939,-0.68616 -1.29903,-1.37257 -1.94894,-2.05925 -0.77197,-0.17134 -1.54417,-0.34294 -2.31666,-0.51481 -0.46553,0.0861 -0.9313,0.17187 -1.39735,0.2574 -5.40538,2.54987 -10.81081,5.09937 -16.21662,7.64866 -0.91906,0.42928 -1.83835,0.85828 -2.75792,1.28703 -0.29392,0.39251 -0.5881,0.78474 -0.88254,1.17672 -0.0978,0.49057 -0.19586,0.98086 -0.29418,1.47089 -0.40424,6.95039 -0.80873,13.90023 -1.21349,20.84994 -0.012,2.7e-4 -0.0368,0 -0.0368,0 l -2.05925,-0.0368 c 0,0 0.76022,-12.11011 1.13994,-18.16556 -0.11006,-0.3552 -0.22037,-0.71066 -0.33095,-1.06639 -0.44102,-0.30618 -0.88228,-0.61261 -1.32381,-0.91931 -0.61262,0.0125 -1.22548,0.0248 -1.83862,0.0368 -0.42875,0.2209 -0.85775,0.44153 -1.28703,0.6619 -13.47095,6.75426 -40.412853,20.26158 -40.412853,20.26158 l -6.87643,0.0368 c 0,0 14.1944,-6.88842 21.29121,-10.33303 0.2209,-0.20812 0.44153,-0.41649 0.6619,-0.62513 2.6e-4,-0.51456 2.6e-4,-1.02937 0,-1.54444 -0.29392,-0.62488 -0.58809,-1.25 -0.88254,-1.8754 -1.94871,-4.19187 -3.89761,-8.38383 -5.84681,-12.57615 -0.19586,-0.13457 -0.39197,-0.2694 -0.58835,-0.4045 -0.26941,0.0738 -0.53907,0.14736 -0.809,0.22064 -1.82613,0.91959 -3.65246,1.83888 -5.47908,2.75793 z"
       sodipodi:nodetypes="cccccccccccccccccccccccccccccccccccccccccccccccccccccccccccccccccccccccc" /></g><g
     inkscape:groupmode="layer"
     id="layer5"
     inkscape:label="Clubs hover"
     style="display:none;fill:#006400"
     class="hovers"><g
       id="g585"
       style="display:inline"><path
         style="opacity:0.38;fill:#006400;fill-opacity:1;stroke:none;stroke-width:0.264583px;stroke-linecap:butt;stroke-linejoin:miter;stroke-opacity:1"
         d="m 42.838277,111.15342 2.059146,2.01877 3.754908,-3.87604 -2.059143,-1.89764 z"
         id="path20998"
         sodipodi:nodetypes="ccccc" /><path
         style="opacity:0.38;fill:#006400;fill-opacity:1;stroke:none;stroke-width:0.264583px;stroke-linecap:butt;stroke-linejoin:miter;stroke-opacity:1"
         d="m 46.512437,111.43605 1.049761,3.87603 1.695765,-0.36338 -1.130512,-3.91641 z"
         id="path21000"
         sodipodi:nodetypes="ccccc" /><path
         style="opacity:0.38;fill:#006400;fill-opacity:1;stroke:none;stroke-width:0.264583px;stroke-linecap:butt;stroke-linejoin:miter;stroke-opacity:1"
         d="m 50.711478,113.85857 -0.726758,-2.7859 1.938018,-0.48451 0.686382,2.66478 z"
         id="path21002"
         sodipodi:nodetypes="ccccc" /></g><path
       style="opacity:0.38;fill:#006400;fill-opacity:1;stroke:none;stroke-width:0.264583px;stroke-linecap:butt;stroke-linejoin:miter;stroke-opacity:1"
       d="m 82.007675,93.29961 0.297939,1.050798 1.293965,-0.360757 -0.298036,-1.042914 z"
       id="path21012"
       sodipodi:nodetypes="ccccc" /><path
       style="opacity:0.38;fill:#006400;fill-opacity:1;stroke:none;stroke-width:0.264583px;stroke-linecap:butt;stroke-linejoin:miter;stroke-opacity:1"
       d="m 106.66173,69.79827 1.05862,2.964133 4.258,-1.670265 -0.96867,-3.060997 -4.27737,1.67303 z"
       id="path21014"
       sodipodi:nodetypes="cccccc" /><path
       style="opacity:0.38;fill:#006400;fill-opacity:1;stroke:none;stroke-width:0.264583px;stroke-linecap:butt;stroke-linejoin:miter;stroke-opacity:1"
       d="m 111.00559,68.023932 0.96308,3.074837 3.23259,-1.253448 -1.24682,-2.987659 z"
       id="path21016"
       sodipodi:nodetypes="ccccc" /><path
       style="opacity:0.38;fill:#006400;fill-opacity:1;stroke:none;stroke-width:0.264583px;stroke-linecap:butt;stroke-linejoin:miter;stroke-opacity:1"
       d="m 142.76972,61.11123 0.62703,-0.530564 1.20583,-1.92932 -1.01289,-0.530564 -1.1576,1.736389 0.48233,0.385866 -0.67526,0.530561 z"
       id="path21028"
       sodipodi:nodetypes="cccccccc" /><path
       style="opacity:0.38;fill:#006400;fill-opacity:1;stroke:none;stroke-width:0.264583px;stroke-linecap:butt;stroke-linejoin:miter;stroke-opacity:1"
       d="m 135.48654,72.78362 0.96466,1.736389 1.59169,-0.819963 0.96466,1.784623 2.50811,-1.44699 -3.13514,-5.691497 -2.50812,1.350525 1.06113,2.074019 z"
       id="path21030"
       sodipodi:nodetypes="ccccccccc" /><path
       style="opacity:0.38;fill:#006400;fill-opacity:1;stroke:none;stroke-width:0.264583px;stroke-linecap:butt;stroke-linejoin:miter;stroke-opacity:1"
       d="m 143.46711,70.15656 0.96103,1.651162 4.7241,-2.767204 -1.01425,-1.714264 -4.50007,2.708083 z"
       id="path21032"
       sodipodi:nodetypes="cccccc" /><path
       style="opacity:0.38;fill:#006400;fill-opacity:1;stroke:none;stroke-width:0.264583px;stroke-linecap:butt;stroke-linejoin:miter;stroke-opacity:1"
       d="m 147.49656,77.751619 4.48567,-2.74928 2.65281,4.003339 -0.85397,0.563777 -0.54478,-0.756709 -0.91722,0.483124 -0.7227,-1.013687 -2.60459,1.543457 z"
       id="path21034"
       sodipodi:nodetypes="ccccccccc" /><path
       style="opacity:0.38;fill:#006400;fill-opacity:1;stroke:none;stroke-width:0.264583px;stroke-linecap:butt;stroke-linejoin:miter;stroke-opacity:1"
       d="m 156.95023,67.574453 1.25406,2.36342 3.66571,-1.977554 -1.37837,-2.270896 z"
       id="path21036"
       sodipodi:nodetypes="ccccc" /><path
       style="opacity:0.38;fill:#006400;fill-opacity:1;stroke:none;stroke-width:0.264583px;stroke-linecap:butt;stroke-linejoin:miter;stroke-opacity:1"
       d="m 176.30636,91.586094 2.02578,-2.161027 1.32849,1.192195 -2.09123,2.244022 z"
       id="path21038"
       sodipodi:nodetypes="ccccc" /><path
       style="display:inline;opacity:0.38;fill:#006400;fill-opacity:1;stroke:none;stroke-width:0.264583px;stroke-linecap:butt;stroke-linejoin:miter;stroke-opacity:1"
       d="m 185.20106,99.741041 2.94182,-2.716634 1.90003,1.868857 -2.88766,2.964106 -0.3688,-0.3395 -1.57167,1.60432 -0.96466,-0.96466 1.65589,-1.68076 z"
       id="path21040"
       sodipodi:nodetypes="ccccccccc" /><path
       style="opacity:0.38;fill:#006400;fill-opacity:1;stroke:none;stroke-width:0.264583px;stroke-linecap:butt;stroke-linejoin:miter;stroke-opacity:1"
       d="m 183.47839,81.803194 2.45988,-2.36342 -4.29274,-4.630369 -2.45988,2.336474 z"
       id="path21042"
       sodipodi:nodetypes="ccccc" /><path
       style="opacity:0.38;fill:#006400;fill-opacity:1;stroke:none;stroke-width:0.264583px;stroke-linecap:butt;stroke-linejoin:miter;stroke-opacity:1"
       d="m 133.99131,114.74634 v -2.55635 h 5.2574 l 0.0482,2.65282 z"
       id="path21044"
       sodipodi:nodetypes="ccccc" /><path
       style="opacity:0.38;fill:#006400;fill-opacity:1;stroke:none;stroke-width:0.264583px;stroke-linecap:butt;stroke-linejoin:miter;stroke-opacity:1"
       d="m 123.13889,82.623154 -1.88109,-3.713941 -3.18338,1.639922 1.88109,3.66571 z"
       id="path21046"
       sodipodi:nodetypes="ccccc" /><path
       style="opacity:0.38;fill:#006400;fill-opacity:1;stroke:none;stroke-width:0.264583px;stroke-linecap:butt;stroke-linejoin:miter;stroke-opacity:1"
       d="m 117.92972,82.189057 -0.67526,-1.205825 -2.45989,1.157591 0.53057,1.350526 z"
       id="path21048"
       sodipodi:nodetypes="ccccc" /><path
       style="display:inline;opacity:0.38;fill:#006400;fill-opacity:1;stroke:none;stroke-width:0.264583px;stroke-linecap:butt;stroke-linejoin:miter;stroke-opacity:1"
       d="m 126.20666,71.920651 0.53889,0.91356 1.75517,-1.237819 -0.63919,-0.869358 z"
       id="path21022"
       sodipodi:nodetypes="ccccc" /><path
       style="display:inline;opacity:0.38;fill:#006400;fill-opacity:1;stroke:none;stroke-width:0.264583px;stroke-linecap:butt;stroke-linejoin:miter;stroke-opacity:1"
       d="m 64.435076,98.636316 0.454761,0.893845 1.521103,-0.705665 -0.470445,-0.909527 z"
       id="path21004"
       sodipodi:nodetypes="ccccc"
       inkscape:label="path21004" /><path
       style="display:inline;opacity:0.38;fill:#006400;fill-opacity:1;stroke:none;stroke-width:0.264583px;stroke-linecap:butt;stroke-linejoin:miter;stroke-opacity:1"
       d="m 125.19318,72.510078 0.56648,0.913685 0.98679,-0.603033 -0.54822,-0.93196 z"
       id="path21018"
       sodipodi:nodetypes="ccccc" /><path
       style="display:inline;opacity:0.38;fill:#006400;fill-opacity:1;stroke:none;stroke-width:0.264583px;stroke-linecap:butt;stroke-linejoin:miter;stroke-opacity:1"
       d="m 74.157537,92.363751 0.157507,0.724136 3.175857,-0.940996 -0.188198,-0.68222 z"
       id="path21010"
       sodipodi:nodetypes="ccccc" /><path
       style="display:inline;opacity:0.38;fill:#006400;fill-opacity:1;stroke:none;stroke-width:0.264583px;stroke-linecap:butt;stroke-linejoin:miter;stroke-opacity:1"
       d="M 65.928957,97.923255 66.37277,98.842248 67.775224,98.24428 67.39887,97.350439 Z"
       id="path21006"
       sodipodi:nodetypes="ccccc" /><path
       style="display:inline;opacity:0.38;fill:#006400;fill-opacity:1;stroke:none;stroke-width:0.264583px;stroke-linecap:butt;stroke-linejoin:miter;stroke-opacity:1"
       d="m 126.17076,71.943845 -0.52074,-0.950486 1.69946,-1.114695 0.52994,0.840589 z"
       id="path21020"
       sodipodi:nodetypes="ccccc" /><path
       style="display:inline;opacity:0.38;fill:#006400;fill-opacity:1;stroke:none;stroke-width:0.264583px;stroke-linecap:butt;stroke-linejoin:miter;stroke-opacity:1"
       d="m 127.73322,67.210701 -0.38374,-0.950232 0.9685,-0.328928 0.36548,0.931961 z"
       id="path21026"
       sodipodi:nodetypes="ccccc"
       inkscape:label="path21026" /><path
       style="display:inline;opacity:0.38;fill:#006400;fill-opacity:1;stroke:none;stroke-width:0.264583px;stroke-linecap:butt;stroke-linejoin:miter;stroke-opacity:1"
       d="m 126.69162,67.612722 -0.38375,-0.931958 1.05094,-0.401635 0.37609,0.930673 z"
       id="path21024"
       sodipodi:nodetypes="ccccc"
       inkscape:label="path21024" /></g><g
     inkscape:groupmode="layer"
     id="g21118"
     inkscape:label="Clubs"
     style="display:inline;fill:#228b22"
     class="clubs"><path
       style="opacity:1;fill:#0541af;fill-opacity:1;stroke:none;stroke-width:0.264583px;stroke-linecap:butt;stroke-linejoin:miter;stroke-opacity:1"
       d="m 3.1513242,87.05777 2.059146,2.01877 3.754908,-3.87604 -2.059143,-1.89764 z"
       id="path21066"
       sodipodi:nodetypes="ccccc" /><path
       style="opacity:1;fill:#0541af;fill-opacity:1;stroke:none;stroke-width:0.264583px;stroke-linecap:butt;stroke-linejoin:miter;stroke-opacity:1"
       d="m 6.8254842,87.3404 1.049761,3.87603 1.695765,-0.36338 -1.130512,-3.91641 z"
       id="path21068"
       sodipodi:nodetypes="ccccc" /><path
       style="display:inline;opacity:1;fill:#0541af;fill-opacity:1;stroke:none;stroke-width:0.264583px;stroke-linecap:butt;stroke-linejoin:miter;stroke-opacity:1"
       d="m 11.024525,89.76292 -0.726758,-2.7859 1.938018,-0.48451 0.686382,2.66478 z"
       id="path21070"
       sodipodi:nodetypes="ccccc" /><path
       style="display:inline;opacity:1;fill:#0541af;fill-opacity:1;stroke:none;stroke-width:0.264583px;stroke-linecap:butt;stroke-linejoin:miter;stroke-opacity:1"
       d="m 24.748123,74.540666 0.454761,0.893845 1.521103,-0.705665 -0.470445,-0.909527 z"
       id="path21072"
       sodipodi:nodetypes="ccccc" /><path
       style="display:inline;opacity:1;fill:#0541af;fill-opacity:1;stroke:none;stroke-width:0.264583px;stroke-linecap:butt;stroke-linejoin:miter;stroke-opacity:1"
       d="m 26.242004,73.827605 0.443813,0.918993 1.402454,-0.597968 -0.376354,-0.893841 z"
       id="path21074"
       sodipodi:nodetypes="ccccc" /><path
       style="display:inline;opacity:1;fill:#0541af;fill-opacity:1;stroke:none;stroke-width:0.264583px;stroke-linecap:butt;stroke-linejoin:miter;stroke-opacity:1"
       d="m 34.463417,68.28649 3.152333,-0.893945 -0.305824,-1.364443 -3.199381,0.893945 z"
       id="path21076"
       sodipodi:nodetypes="ccccc" /><path
       style="display:inline;opacity:1;fill:#0541af;fill-opacity:1;stroke:none;stroke-width:0.264583px;stroke-linecap:butt;stroke-linejoin:miter;stroke-opacity:1"
       d="m 34.470584,68.268101 0.157507,0.724136 3.175857,-0.940996 -0.188198,-0.68222 z"
       id="path21078"
       sodipodi:nodetypes="ccccc" /><path
       style="display:inline;opacity:1;fill:#0541af;fill-opacity:1;stroke:none;stroke-width:0.264583px;stroke-linecap:butt;stroke-linejoin:miter;stroke-opacity:1"
       d="m 42.320722,69.20396 0.297939,1.050798 1.293965,-0.360757 -0.298036,-1.042914 z"
       id="path21080"
       sodipodi:nodetypes="ccccc" /><path
       style="display:inline;opacity:1;fill:#0541af;fill-opacity:1;stroke:none;stroke-width:0.264583px;stroke-linecap:butt;stroke-linejoin:miter;stroke-opacity:1"
       d="m 66.974777,45.70262 1.05862,2.964133 4.258,-1.670265 -0.96867,-3.060997 -4.27737,1.67303 z"
       id="path21082"
       sodipodi:nodetypes="cccccc" /><path
       style="display:inline;opacity:1;fill:#0541af;fill-opacity:1;stroke:none;stroke-width:0.264583px;stroke-linecap:butt;stroke-linejoin:miter;stroke-opacity:1"
       d="m 71.318637,43.928282 0.96308,3.074837 3.23259,-1.253448 -1.24682,-2.987659 z"
       id="path21084"
       sodipodi:nodetypes="ccccc" /><path
       style="display:inline;opacity:1;fill:#0541af;fill-opacity:1;stroke:none;stroke-width:0.264583px;stroke-linecap:butt;stroke-linejoin:miter;stroke-opacity:1"
       d="m 85.506227,48.414428 0.56648,0.913685 0.98679,-0.603033 -0.54822,-0.93196 z"
       id="path21086"
       sodipodi:nodetypes="ccccc" /><path
       style="display:inline;opacity:1;fill:#0541af;fill-opacity:1;stroke:none;stroke-width:0.264583px;stroke-linecap:butt;stroke-linejoin:miter;stroke-opacity:1"
       d="m 86.483807,47.848195 -0.52074,-0.950486 1.69946,-1.114695 0.52994,0.840589 z"
       id="path21088"
       sodipodi:nodetypes="ccccc" /><path
       style="display:inline;opacity:1;fill:#0541af;fill-opacity:1;stroke:none;stroke-width:0.264583px;stroke-linecap:butt;stroke-linejoin:miter;stroke-opacity:1"
       d="m 86.519707,47.825001 0.53889,0.91356 1.75517,-1.237819 -0.63919,-0.869358 z"
       id="path21090"
       sodipodi:nodetypes="ccccc" /><path
       style="display:inline;opacity:1;fill:#0541af;fill-opacity:1;stroke:none;stroke-width:0.264583px;stroke-linecap:butt;stroke-linejoin:miter;stroke-opacity:1"
       d="m 87.004667,43.517072 -0.38375,-0.931958 1.05094,-0.401635 0.37609,0.930673 z"
       id="path21092"
       sodipodi:nodetypes="ccccc" /><path
       style="display:inline;opacity:1;fill:#0541af;fill-opacity:1;stroke:none;stroke-width:0.264583px;stroke-linecap:butt;stroke-linejoin:miter;stroke-opacity:1"
       d="m 88.046267,43.115051 -0.38374,-0.950232 0.9685,-0.328928 0.36548,0.931961 z"
       id="path21094"
       sodipodi:nodetypes="ccccc" /><path
       style="display:inline;opacity:1;fill:#0541af;fill-opacity:1;stroke:none;stroke-width:0.264583px;stroke-linecap:butt;stroke-linejoin:miter;stroke-opacity:1"
       d="m 103.08277,37.01558 0.62703,-0.530564 1.20583,-1.92932 -1.01289,-0.530564 -1.1576,1.736389 0.48233,0.385866 -0.67526,0.530561 z"
       id="path21096"
       sodipodi:nodetypes="cccccccc" /><path
       style="display:inline;opacity:1;fill:#0541af;fill-opacity:1;stroke:none;stroke-width:0.264583px;stroke-linecap:butt;stroke-linejoin:miter;stroke-opacity:1"
       d="m 95.799587,48.68797 0.96466,1.736389 1.59169,-0.819963 0.96466,1.784623 2.508113,-1.44699 -3.135143,-5.691497 -2.50812,1.350525 1.06113,2.074019 z"
       id="path21098"
       sodipodi:nodetypes="ccccccccc" /><path
       style="display:inline;opacity:1;fill:#0541af;fill-opacity:1;stroke:none;stroke-width:0.264583px;stroke-linecap:butt;stroke-linejoin:miter;stroke-opacity:1"
       d="m 103.78016,46.06091 0.96103,1.651162 4.7241,-2.767204 -1.01425,-1.714264 -4.50007,2.708083 z"
       id="path21100"
       sodipodi:nodetypes="cccccc" /><path
       style="display:inline;opacity:1;fill:#0541af;fill-opacity:1;stroke:none;stroke-width:0.264583px;stroke-linecap:butt;stroke-linejoin:miter;stroke-opacity:1"
       d="m 107.80961,53.655969 4.48567,-2.74928 2.65281,4.003339 -0.85397,0.563777 -0.54478,-0.756709 -0.91722,0.483124 -0.7227,-1.013687 -2.60459,1.543457 z"
       id="path21102"
       sodipodi:nodetypes="ccccccccc" /><path
       style="display:inline;opacity:1;fill:#0541af;fill-opacity:1;stroke:none;stroke-width:0.264583px;stroke-linecap:butt;stroke-linejoin:miter;stroke-opacity:1"
       d="m 117.26328,43.478803 1.25406,2.36342 3.66571,-1.977554 -1.37837,-2.270896 z"
       id="path21104"
       sodipodi:nodetypes="ccccc" /><path
       style="display:inline;opacity:1;fill:#0541af;fill-opacity:1;stroke:none;stroke-width:0.264583px;stroke-linecap:butt;stroke-linejoin:miter;stroke-opacity:1"
       d="m 136.61941,67.490444 2.02578,-2.161027 1.32849,1.192195 -2.09123,2.244022 z"
       id="path21106"
       sodipodi:nodetypes="ccccc" /><path
       style="display:inline;opacity:1;fill:#0541af;fill-opacity:1;stroke:none;stroke-width:0.264583px;stroke-linecap:butt;stroke-linejoin:miter;stroke-opacity:1"
       d="m 145.51411,75.645391 2.94182,-2.716634 1.90003,1.868857 -2.88766,2.964106 -0.3688,-0.3395 -1.57167,1.60432 -0.96466,-0.96466 1.65589,-1.68076 z"
       id="path21108"
       sodipodi:nodetypes="ccccccccc" /><path
       style="display:inline;opacity:1;fill:#0541af;fill-opacity:1;stroke:none;stroke-width:0.264583px;stroke-linecap:butt;stroke-linejoin:miter;stroke-opacity:1"
       d="m 143.79144,57.707544 2.45988,-2.36342 -4.29274,-4.630369 -2.45988,2.336474 z"
       id="path21110"
       sodipodi:nodetypes="ccccc" /><path
       style="display:inline;opacity:1;fill:#0541af;fill-opacity:1;stroke:none;stroke-width:0.264583px;stroke-linecap:butt;stroke-linejoin:miter;stroke-opacity:1"
       d="m 94.304357,90.65069 v -2.55635 h 5.2574 l 0.0482,2.65282 z"
       id="path21112"
       sodipodi:nodetypes="ccccc" /><path
       style="display:inline;opacity:1;fill:#0541af;fill-opacity:1;stroke:none;stroke-width:0.264583px;stroke-linecap:butt;stroke-linejoin:miter;stroke-opacity:1"
       d="m 83.451937,58.527504 -1.88109,-3.713941 -3.18338,1.639922 1.88109,3.66571 z"
       id="path21114"
       sodipodi:nodetypes="ccccc" /><path
       style="display:inline;opacity:1;fill:#0541af;fill-opacity:1;stroke:none;stroke-width:0.264583px;stroke-linecap:butt;stroke-linejoin:miter;stroke-opacity:1"
       d="m 78.242767,58.093407 -0.67526,-1.205825 -2.45989,1.157591 0.53057,1.350526 z"
       id="path21116"
       sodipodi:nodetypes="ccccc" /></g><g
     inkscape:groupmode="layer"
     id="layer2"
     inkscape:label="Rides"><path
       style="fill:#ff328d;fill-opacity:1;stroke:none;stroke-width:0.1;stroke-dasharray:none;stroke-opacity:1"
       d="m 46.057969,49.631397 2.926091,7.733242 4.23238,-1.672053 -2.873838,-7.785492 z"
       id="path10944" /><path
       style="fill:#ff328d;fill-opacity:1;stroke:none;stroke-width:0.1;stroke-dasharray:none;stroke-opacity:1"
       d="m 50.081345,61.022252 0.940527,3.187351 5.799932,-1.619803 -0.836025,-3.187348 z"
       id="path13916" /><path
       style="fill:#ff328d;fill-opacity:1;stroke:none;stroke-width:0.1;stroke-dasharray:none;stroke-opacity:1"
       d="m 58.759752,65.41003 -0.350007,-1.050012 2.354582,-0.763645 0.35,1.08183 z"
       id="path13918" /><path
       style="fill:#ff328d;fill-opacity:1;stroke:none;stroke-width:0.1;stroke-dasharray:none;stroke-opacity:1"
       d="M 18.995971,80.37404 17.695517,78.34208 20.757,76.60815 22.057451,78.6401 Z"
       id="path13920" /><path
       style="fill:#ff328d;fill-opacity:1;stroke:none;stroke-width:0.1;stroke-dasharray:none;stroke-opacity:1"
       d="m 120.0987,59.833199 1.46764,1.450578 0.66556,-0.66556 -1.48471,-1.535909 z"
       id="path13922" /><path
       style="fill:#ff328d;fill-opacity:1;stroke:none;stroke-width:0.1;stroke-dasharray:none;stroke-opacity:1"
       d="m 107.31722,77.59121 -1.66246,-2.062674 5.75702,-4.679503 1.66246,2.247392 z"
       id="path13924" /><path
       style="fill:#ff328d;fill-opacity:1;stroke:none;stroke-width:0.1;stroke-dasharray:none;stroke-opacity:1"
       d="m 106.54264,114.27002 -2.22934,-4.67915 8.79485,-4.28718 2.22933,4.60566 z"
       id="path13926" /><path
       style="fill:#ff328d;fill-opacity:1;stroke:none;stroke-width:0.1;stroke-dasharray:none;stroke-opacity:1"
       d="m 108.77197,118.06724 -1.20041,-2.35182 4.77714,-2.37633 1.24941,2.25383 z"
       id="path13928" /><path
       style="fill:#ff328d;fill-opacity:1;stroke:none;stroke-width:0.1;stroke-dasharray:none;stroke-opacity:1"
       d="m 115.65596,114.09854 -0.68595,-1.22491 2.30282,-1.3474 0.73495,1.2984 z"
       id="path13930" /><path
       style="fill:#ff328d;fill-opacity:1;stroke:none;stroke-width:0.1;stroke-dasharray:none;stroke-opacity:1"
       d="m 118.42425,112.60415 -0.53896,-1.00443 2.44982,-1.2984 0.51446,1.05342 z"
       id="path13932" /><path
       style="fill:#ff328d;fill-opacity:1;stroke:none;stroke-width:0.1;stroke-dasharray:none;stroke-opacity:1"
       d="m 121.41303,110.86478 -0.63696,-0.83294 1.46989,-0.93093 0.56346,0.90643 z"
       id="path13934" /><path
       style="fill:#ff328d;fill-opacity:1;stroke:none;stroke-width:0.1;stroke-dasharray:none;stroke-opacity:1"
       d="m 118.57124,109.02742 -0.61246,-1.12692 1.02893,-0.61246 0.66145,1.07792 z"
       id="path13936" /><circle
       style="fill:#ff328d;fill-opacity:1;stroke:none;stroke-width:0.1;stroke-dasharray:none;stroke-opacity:1"
       id="path13990"
       cx="120.89571"
       cy="106.40629"
       r="1.3237343" /><circle
       style="fill:#ff328d;fill-opacity:1;stroke:none;stroke-width:0.1;stroke-dasharray:none;stroke-opacity:1"
       id="path13992"
       cx="140.30646"
       cy="83.387779"
       r="2.9669907" /><circle
       style="fill:#ff328d;fill-opacity:1;stroke:none;stroke-width:0.1;stroke-dasharray:none;stroke-opacity:1"
       id="path13994"
       cx="51.516811"
       cy="67.582108"
       r="0.9874813" /><circle
       style="fill:#ff328d;fill-opacity:1;stroke:none;stroke-width:0.1;stroke-dasharray:none;stroke-opacity:1"
       id="path13996"
       cx="59.179676"
       cy="56.522324"
       r="1.2639761" /><circle
       style="fill:#ff328d;fill-opacity:1;stroke:none;stroke-width:0.1;stroke-dasharray:none;stroke-opacity:1"
       id="path13998"
       cx="55.779766"
       cy="52.264885"
       r="1.9908969" /></g></svg>
